<svg width="1920" height="565" viewBox="0 0 1920 565" fill="none" xmlns="http://www.w3.org/2000/svg">
<path d="M902.562 155.855C853.246 190.611 799.724 217.954 745.098 243.035C686.687 269.852 627.329 294.513 565.711 313.285C526.648 325.168 487.374 335.106 445.944 329.9C415.608 326.115 388.795 314.494 367.607 292.199C339.9 263.069 332.014 226.893 333.538 188.035C335.221 144.602 340.741 101.327 338.743 57.7895C337.849 38.5971 335.799 19.5625 331.803 0.895935H321.761C330.752 43.2769 329.069 86.394 324.548 129.616C321.13 162.375 315.4 195.081 319.448 228.207C324.863 272.166 346.367 305.765 384.747 328.218C423.232 350.723 464.504 351.932 506.774 343.572C549.097 335.159 589.055 319.226 628.749 302.926C692.996 276.53 756.349 248.083 817.495 215.009C877.115 182.776 934.422 147.284 981.109 97.1207C1004.45 71.9866 1023.12 43.9079 1035.52 11.7278C1036.89 8.15223 1038.15 4.52408 1039.36 0.895935H1031.95C1025.38 20.5615 1016.12 39.491 1003.93 57.6317C976.956 97.5413 941.415 128.459 902.562 155.855Z" fill="url(#paint0_linear_1_123)"/>
<path d="M352.15 133.981C351.414 161.639 349.942 189.297 354.884 216.692C362.98 261.702 388.479 291.831 432.433 305.45C465.502 315.703 498.888 312.548 532.01 305.818C587.95 294.46 641.42 275.268 694.153 253.972C767.863 224.211 839.629 190.559 904.77 144.234C934.895 122.781 962.445 98.4352 985.21 69.0946C1001.82 47.6938 1014.18 24.9258 1022.64 0.843353H1013.92C996.671 48.2722 965.021 85.6053 926.273 117.838C876.852 158.957 820.491 188.613 762.395 215.167C717.759 235.569 671.966 253.078 625.016 267.433C575.28 282.682 524.965 295.407 472.179 290.937C443.473 288.466 417.922 278.475 398.416 256.444C378.911 234.412 371.655 207.437 369.868 178.938C367.344 138.24 366.661 97.3836 363.717 56.6853C362.35 37.7558 359.826 19.0367 355.567 0.843353H343.843C353.675 44.5914 353.412 89.2334 352.15 133.981Z" fill="url(#paint1_linear_1_123)"/>
<path d="M398.364 78.4541C402.57 110.634 406.145 142.919 417.238 173.68C426.176 198.446 440.582 218.795 464.241 232.046C489.634 246.295 517.236 248.293 545.259 247.662C593.786 246.506 640.368 234.359 686.214 219.689C724.962 207.28 762.658 192.346 799.303 174.416C852.772 148.283 902.929 117.522 943.938 73.564C964.758 51.3219 980.583 27.0817 991.309 0.895935H987.681C966.546 51.4271 929.743 89.0231 885.737 120.414C848.934 146.653 809.188 167.58 767.706 185.458C722.018 205.176 675.278 221.582 626.646 231.941C584.007 241.037 541.053 247.925 497.521 237.041C479.014 232.414 462.295 224.369 448.731 210.803C430.592 192.662 421.444 169.894 415.24 145.443C405.566 107.216 402.622 67.8852 394.999 29.3427C393.106 19.7728 390.95 10.2555 388.479 0.843353H384.484C390.95 26.293 394.946 52.2684 398.364 78.4541Z" fill="url(#paint2_linear_1_123)"/>
<path d="M427.28 36.1784C434.273 65.0984 440.161 94.3339 451.202 122.15C463.978 154.33 483.536 180.41 516.869 193.871C547.888 206.386 580.327 207.49 612.713 203.389C712.659 190.716 804.298 155.96 885.107 95.2278C919.806 69.1472 947.198 38.229 964.338 0.948517H950.931C934.843 33.5493 910.5 61.7331 879.113 86.1311C827.063 126.514 768.126 152.752 705.141 170.683C667.707 181.357 629.643 188.087 590.527 186.668C560.243 185.563 531.327 179.201 506.932 160.009C484.798 142.604 471.601 118.89 461.98 92.9142C451.78 65.3087 444.735 36.7568 436.218 8.67805C435.429 6.10154 434.641 3.52503 433.799 1.0011H417.869C421.339 12.5165 424.388 24.2949 427.28 36.1784Z" fill="url(#paint3_linear_1_123)"/>
<path d="M595.311 11.3071C598.466 19.878 601.094 28.5014 606.036 36.7042C611.767 46.2215 620.547 53.8984 635.531 57.8946C649.464 61.5754 664.027 61.9434 678.59 60.7341C723.49 57.0008 764.656 46.6947 800.986 28.7643C816.548 21.0874 828.903 11.9381 836.579 0.895935H830.586C823.33 10.5184 812.447 18.8789 798.304 26.0826C774.908 38.0187 748.41 45.8008 720.125 51.059C703.301 54.2139 686.214 56.212 668.654 55.7914C655.037 55.4759 642.051 53.5829 631.062 47.9041C621.126 42.7511 615.185 35.7577 610.873 28.0807C606.299 19.9306 603.145 11.4649 599.307 3.20954C598.939 2.47339 598.571 1.68466 598.255 0.948517H591.105C592.682 4.31375 594.049 7.83674 595.311 11.3071Z" fill="url(#paint4_linear_1_123)"/>
<path d="M447.679 24.6103C456.985 56.0543 465.818 87.7085 482.327 116.418C501.727 150.071 530.801 169.736 569.023 176.467C613.292 184.301 656.509 177.623 699.2 166.792C749.199 154.119 796.622 134.612 840.575 107.479C876.589 85.2898 908.66 58.473 932.687 23.0855C937.577 15.8818 941.94 8.46772 945.778 0.895935H923.434C922.856 1.89499 922.277 2.89405 921.699 3.84052C895.464 47.4309 857.136 77.9809 813.026 101.748C781.533 118.732 748.411 131.614 713.658 140.553C679.747 149.282 645.783 154.172 610.716 151.28C563.766 147.389 527.331 126.672 502.936 85.8156C487.006 59.104 477.174 29.8159 466.449 0.895935H440.319C442.895 8.73063 445.314 16.6705 447.679 24.6103Z" fill="url(#paint5_linear_1_123)"/>
<path d="M553.514 14.462C559.718 32.445 565.553 50.5332 576.542 66.9387C589.423 86.1837 608.718 97.3836 634.112 101.275C663.501 105.744 692.208 101.906 720.546 95.7536C753.773 88.5499 785.213 77.3499 814.445 61.8383C838.367 49.1661 859.66 33.8122 875.59 13.6207C878.85 9.51936 881.742 5.26023 884.265 0.948517H869.439C869.071 1.52692 868.703 2.10532 868.282 2.63114C850.88 27.5549 825.433 45.0121 796.149 58.5782C775.224 68.2533 753.248 75.6673 730.167 80.7677C707.665 85.763 685.11 88.5499 661.819 86.8672C630.642 84.6588 606.457 72.8279 590.264 49.4816C579.696 34.2328 573.177 17.4592 566.027 0.948517H548.677C550.307 5.36539 551.936 9.88743 553.514 14.462Z" fill="url(#paint6_linear_1_123)"/>
<path d="M188.01 49.9022C185.065 86.2888 174.708 121.045 166.611 156.328C157.148 197.657 154.94 239.197 166.401 280.368C172.552 302.4 181.648 323.485 193.635 343.204C210.512 370.809 230.385 396.154 252.677 419.5C284.17 452.469 319.027 481.494 357.828 505.313C394.631 527.924 434.167 544.277 478.383 543.856C510.559 543.593 540.265 534.234 568.655 518.196C593.26 504.262 615.237 487.068 637.687 470.399C653.564 458.621 667.549 444.371 682.954 431.909C728.327 395.207 773.962 358.978 822.068 325.747C865.811 295.512 910.237 266.276 952.876 234.412C973.959 218.637 994.884 202.705 1014.55 185.195C1049.25 154.172 1080.74 120.309 1103.5 79.348C1117.28 54.582 1126.95 28.3962 1132.26 0.895935H1103.87C1103.56 2.21048 1103.29 3.52503 1102.93 4.89215C1090.36 56.4749 1062.44 99.0662 1026.11 136.82C981.319 183.407 928.586 219.847 874.434 254.34C797.358 303.452 719.336 351.091 644.521 403.673C613.923 425.179 583.008 446.212 549.255 462.617C484.85 493.851 422.233 488.33 360.772 454.099C330.909 437.43 303.886 416.976 279.911 392.736C247.735 360.24 221.553 323.748 209.303 278.738C200.68 247.189 200.838 215.43 206.253 183.46C210.722 157.117 218.083 131.404 224.076 105.376C232.068 70.8824 236.589 36.0732 229.86 0.948517H185.854C188.798 16.6705 189.377 33.0234 188.01 49.9022Z" fill="url(#paint7_linear_1_123)"/>
<path d="M110.356 59.4721C106.991 97.5414 97.0542 134.559 93.1637 172.576C88.1164 222.055 94.5306 269.484 115.35 314.967C135.697 359.294 164.351 397.836 195.58 434.854C221.71 465.825 249.786 494.85 279.228 522.56C323.444 564.205 371.077 601.486 426.544 627.146C463.399 644.182 501.779 654.751 543.156 647.179C567.972 642.657 589.738 631.563 609.454 616.314C641.42 591.548 668.075 561.366 694.889 531.394C708.874 515.777 723.122 500.371 737.527 485.122C755.035 466.508 772.49 447.789 790.629 429.806C825.381 395.417 862.289 363.448 900.721 333.318C945.621 298.141 991.414 264.068 1034.47 226.577C1076.64 189.822 1115.28 149.913 1143.36 100.854C1161.28 69.5678 1172.69 36.2309 1177.85 0.948517H1152.19C1149.14 18.6686 1144.3 36.1783 1137.47 53.4778C1122.38 91.4419 1099.56 124.253 1072.64 154.487C1049.19 180.778 1022.43 203.336 995.304 225.631C958.817 255.55 920.122 282.367 882.215 310.287C835.738 344.571 789.367 379.012 746.886 418.343C724.646 438.955 701.566 458.673 680.115 479.969C665.604 494.376 650.568 508.153 635.268 521.509C608.507 544.75 580.169 566.256 546.626 579.191C533.114 584.397 518.656 586.552 504.145 587.657C460.613 590.969 421.549 577.088 384.116 556.686C343.107 534.339 307.356 505.208 273.234 473.607C241.374 444.056 211.931 412.454 186.643 377.277C156.517 335.422 133.962 290.043 129.704 237.514C127.022 203.967 131.228 170.893 138.431 138.187C145.266 107.059 153.625 76.2457 155.308 44.276C156.096 29.4479 155.203 14.9879 152.469 1.0011H107.306C111.407 19.7202 112.091 39.2807 110.356 59.4721Z" fill="url(#paint8_linear_1_123)"/>
<path d="M240.585 92.9667C234.802 123.727 225.496 153.646 220.028 184.564C210.407 239.144 218.924 289.938 249.681 336.21C282.067 384.954 324.968 421.656 378.175 446.527C439.425 475.184 499.098 470.294 557.93 439.954C608.77 413.768 654.879 379.906 703.353 349.934C752.511 319.542 801.932 289.623 851.038 259.178C897.251 230.521 942.782 200.917 984.159 165.319C1007.5 145.233 1029.32 123.675 1047.99 99.1714C1070.7 69.3575 1086.79 36.6516 1095.46 0.948517H1087.89C1085.58 9.94001 1082.84 18.8263 1079.53 27.6601C1062.6 73.1434 1033.37 110.476 998.512 143.393C961.919 177.992 920.963 207.122 878.167 233.36C819.335 269.431 759.767 304.346 700.409 339.576C650.095 369.442 601.936 403.042 548.677 427.86C510.349 445.738 470.392 455.045 428.121 447.158C365.662 435.485 316.609 401.149 276.441 353.405C231.384 299.929 219.45 238.408 234.749 170.893C239.902 148.178 245.159 125.515 250.049 102.747C255.254 78.4541 258.724 53.8984 257.041 28.9746C256.41 19.4047 255.201 10.0452 253.361 0.895935H242.53C248.156 30.7098 246.473 61.5754 240.585 92.9667Z" fill="url(#paint9_linear_1_123)"/>
<path d="M278.65 83.7649C274.759 117.365 264.98 149.913 259.723 183.25C254.675 215.482 253.992 247.557 264.559 278.896C277.125 316.387 300.311 346.411 331.12 370.704C383.695 412.138 442.264 427.387 507.826 409.509C544.734 399.466 578.54 382.167 611.925 363.973C695.835 318.28 780.692 274.164 862.552 224.789C914.496 193.503 964.18 159.115 1005.87 114.473C1036.84 81.3461 1059.97 44.013 1071.85 0.843353H1063.49C1061.39 8.15223 1058.97 15.4611 1056.03 22.6648C1040.89 60.0505 1017.65 91.3893 990.047 119.941C970.804 139.87 949.248 157.169 926.851 173.364C869.597 214.694 807.505 247.873 745.203 280.631C713.974 297.037 682.376 312.759 651.094 329.112C617.656 346.621 584.007 363.763 549.045 378.065C517.394 391.053 484.64 399.677 450.045 398.783C410.403 397.731 375.178 384.428 343.422 360.871C316.556 340.943 296.262 315.861 283.276 285.206C267.451 247.873 269.712 209.173 276.231 170.315C281.857 136.662 290.742 103.641 292.53 69.3049C293.739 46.0637 292.53 23.2432 288.113 0.895935H276.547C281.699 27.5549 281.909 55.2656 278.65 83.7649Z" fill="url(#paint10_linear_1_123)"/>
<path d="M86.4339 65.7819C83.9102 94.3339 78.7053 122.465 75.025 150.807C70.7138 183.565 70.3458 216.219 76.4445 248.819C85.7504 298.614 108.568 342.362 137.379 383.271C182.752 447.579 236.169 504.84 294.001 558C330.436 591.495 369.5 621.572 412.927 645.76C446.785 664.584 481.696 679.675 520.706 683.093C547.204 685.406 572.283 680.464 595.837 667.844C624.175 652.648 645.52 629.617 666.13 605.692C704.352 561.366 740.577 515.409 779.693 471.871C811.08 436.905 843.467 402.937 879.165 372.492C923.434 334.791 968.964 298.562 1013.86 261.597C1053.66 228.838 1091.73 194.239 1123.8 153.541C1156.13 112.632 1179.69 67.5697 1189.15 15.9343C1190.1 10.8865 1190.83 5.83863 1191.46 0.790772H1185.42C1185.15 2.68372 1184.94 4.52408 1184.63 6.36445C1176.69 60.2082 1152.56 107.164 1119.38 149.545C1087 190.874 1047.98 225.736 1007.55 258.968C973.538 286.941 938.733 313.968 904.296 341.416C881.952 359.241 859.923 377.54 839.155 397.205C817.179 417.975 795.465 439.06 775.382 461.776C754.036 485.858 732.165 509.52 710.819 533.655C682.533 565.625 656.088 599.12 623.807 627.461C581.116 665.005 532.746 676.31 478.436 661.008C433.642 648.389 393.947 625.358 356.303 598.436C313.77 568.044 275.81 532.446 239.533 495.165C209.355 464.194 180.807 431.646 155.097 396.627C123.079 352.984 96.7386 306.975 85.7504 253.078C78.0218 215.219 80.0197 177.676 85.8555 139.975C91.7965 101.432 100.787 63.2054 97.2118 23.6113C96.4757 15.724 95.2139 8.09965 93.4264 0.685608H82.0175C87.3276 21.2977 88.4317 43.0666 86.4339 65.7819Z" fill="url(#paint11_linear_1_123)"/>
<path d="M53.3114 59.5773C52.2074 91.547 48.0013 123.359 45.3726 155.276C42.7964 186.983 43.9005 218.48 50.7352 249.661C61.408 298.404 84.5938 341.469 111.986 382.325C126.496 403.988 142.742 424.495 159.409 444.634C198.472 491.8 239.376 537.231 283.802 579.401C323.128 616.734 364.82 651.228 410.771 680.253C446.155 702.601 483.22 721.372 524.597 729.47C558.876 736.2 591.894 732.835 622.913 714.537C652.986 696.764 673.543 669.947 692.786 642.289C724.646 596.596 755.403 550.218 790.628 506.996C814.235 478.024 837.736 448.946 864.129 422.392C882.793 403.62 901.51 384.901 921.226 367.128C954.926 336.736 990.31 308.289 1024.69 278.738C1054.77 252.868 1084.47 226.577 1111.44 197.499C1142.15 164.32 1168.7 128.249 1187.31 86.6043C1199.66 58.9989 1206.76 30.3418 1210.39 0.843353H1204.24C1201.87 21.0348 1197.46 41.121 1190.62 60.9444C1171.64 115.945 1137.78 161.218 1097.83 202.495C1058.87 242.772 1015.86 278.633 972.224 313.548C887.577 381.273 812.657 458.358 746.728 544.329C716.655 583.555 689.894 625.305 656.929 662.218C638.265 683.093 616.867 700.34 589.685 709.226C552.777 721.215 516.816 715.746 481.485 702.969C435.587 686.353 394.999 660.43 356.356 631.142C301.94 589.97 253.729 542.121 208.251 491.537C167.873 446.632 129.23 400.465 98.4211 348.146C63.8265 289.465 48.1065 226.682 54.363 158.431C57.3597 125.357 62.8276 92.5987 64.4048 59.3669C65.4038 38.4394 63.1956 18.8789 57.7278 0.790771H45.688C51.5765 19.1944 53.9949 38.8074 53.3114 59.5773Z" fill="url(#paint12_linear_1_123)"/>
<path d="M1.99799 360.556C11.1987 373.701 20.0313 387.057 29.6001 399.94C55.0465 434.275 81.7022 467.665 108.726 500.739C143.478 543.278 178.388 585.711 214.876 626.725C243.266 658.642 272.656 689.613 302.939 719.742C326.073 742.721 349.889 765.015 374.81 786.048C404.147 810.814 434.798 833.687 468.079 853.09C511.401 878.329 556.721 897.153 607.298 901.675C668.864 907.197 721.124 887.426 764.393 843.941C786.633 821.593 802.984 794.882 816.864 766.645C836.685 726.42 852.089 684.25 870.491 643.341C895.884 586.973 925.642 533.34 962.287 483.387C999.405 432.751 1042.52 387.478 1086.15 342.678C1113.44 314.652 1141.46 287.414 1167.86 258.494C1200.35 222.896 1229.9 185.143 1252.56 142.341C1276.21 97.6991 1288.78 50.5332 1290.46 0.895935H1280.58C1279.05 36.9671 1271.85 71.9866 1258.18 105.954C1237.83 156.38 1206.18 199.445 1170.54 239.88C1132.63 282.892 1090.57 321.803 1050.35 362.501C1000.25 413.243 953.297 466.666 914.654 526.872C882.583 576.825 856.716 629.932 833.845 684.618C815.392 728.786 797.884 773.586 767.969 811.813C719.862 873.176 656.614 895.103 580.748 881.905C523.44 871.914 473.704 844.729 426.965 811.498C360.089 763.911 301.783 706.807 246.105 646.864C176.759 572.198 112.354 493.588 50.3148 412.927C32.4917 389.791 16.0356 365.709 0.73618 340.785C0.683605 340.68 0.578454 340.627 0.525879 340.522V358.452C1.05163 359.136 1.47224 359.82 1.99799 360.556Z" fill="url(#paint13_linear_1_123)"/>
<path d="M89.0102 428.439C88.6421 427.966 87.8535 426.967 87.17 427.492C86.5391 428.018 87.17 429.017 87.538 429.49C91.1132 433.855 94.4254 438.482 97.8954 442.951C99.0521 444.424 99.4727 444.95 99.9984 445.581C100.629 446.317 101.786 445.37 101.26 444.634C100.419 443.425 100.156 443.162 99.3149 442.058C95.6872 437.167 92.6904 433.119 89.0102 428.439Z" fill="url(#paint14_linear_1_123)"/>
<path d="M42.5862 366.235C42.7439 366.445 42.9542 366.287 42.9542 366.024C42.9542 363.132 41.3244 360.819 39.7997 358.505C24.3425 334.896 10.8307 310.235 0.525879 283.891V290.412C0.73618 290.937 0.946482 291.411 1.15678 291.936C12.6182 318.017 26.2878 342.836 42.5862 366.235Z" fill="url(#paint15_linear_1_123)"/>
<path d="M2.94426 453.152C17.6654 471.451 32.2287 489.854 47.1076 507.995C119.714 596.596 225.916 734.465 336.272 837.736C381.277 879.854 429.278 917.871 483.746 947.369C549.15 982.757 643.207 1014.73 740.629 976.867C770.597 965.194 796.99 948.21 820.544 926.652C859.713 890.791 886.736 846.359 908.45 798.72C973.223 656.381 993.727 574.669 1082.37 460.987C1128.85 401.359 1180.69 346.306 1229.37 288.571C1268.38 242.299 1303.71 193.608 1327 137.135C1344.35 95.07 1352.45 51.2168 1352.29 5.94379C1352.29 4.26117 1352.24 2.57855 1352.24 0.895935H1334.78C1334.89 17.985 1333.84 35.0741 1331.42 52.2158C1321.9 118.995 1291.93 176.782 1252.35 230.205C1212.55 283.944 1165.7 331.688 1121.43 381.588C1088.89 418.291 1057.5 455.887 1029.01 495.849C953.349 601.959 919.859 725.737 873.75 813.496C850.407 857.927 821.28 897.574 779.956 927.178C675.068 1002.37 559.823 957.938 533.114 947.79C473.546 925.127 421.917 889.161 373.706 848.252C338.06 818.018 304.779 785.207 272.656 751.186C263.192 741.143 197.473 672.787 97.4748 547.274C70.7665 513.937 44.0056 480.653 16.8767 447.631C11.4615 441.058 7.20287 433.329 0.578369 427.86V450.418C1.41958 451.259 2.15563 452.206 2.94426 453.152Z" fill="url(#paint16_linear_1_123)"/>
<path d="M1493.61 39.1755C1491.41 38.9652 1492.51 44.5915 1492.46 48.9032C1492.4 52.1107 1491.77 58.2102 1493.56 58.3679C1495.35 58.5256 1494.67 51.69 1494.67 48.9558C1494.67 43.3821 1495.87 39.3333 1493.61 39.1755Z" fill="url(#paint17_linear_1_123)"/>
<path d="M893.781 1089.29C948.407 1045.22 988.101 989.382 1020.38 927.756C1053.08 865.236 1079.27 799.824 1106.13 734.728C1132.63 670.578 1161.18 607.585 1199.3 549.325C1234.68 495.27 1275.74 445.475 1315.65 394.787C1356.39 343.046 1397.45 291.621 1429.89 233.939C1471.16 160.692 1487.83 83.2917 1478.16 0.895935H1472.79C1477.26 42.4356 1476.21 83.8175 1466.75 124.779C1456.81 167.58 1439.41 207.227 1417.17 244.981C1385.78 298.299 1347.09 346.306 1308.92 394.681C1263.81 451.89 1217.28 508.048 1179.32 570.568C1153.71 612.791 1132.47 657.117 1113.23 702.495C1083.37 772.903 1055.71 844.309 1021.07 912.665C994.148 965.773 961.814 1015.04 919.123 1056.95C905.4 1070.41 890.784 1082.77 875.222 1093.91H887.84C889.838 1092.39 891.836 1090.86 893.781 1089.29Z" fill="url(#paint18_linear_1_123)"/>
<path d="M2.15564 539.281C48.2642 596.438 94.3728 653.647 140.324 710.908C179.86 760.178 220.606 808.395 263.981 854.247C310.3 903.253 359.142 949.525 414.136 988.909C470.182 1029.03 530.17 1060.79 598.045 1075.93C655.142 1088.66 790.576 1105.11 906.031 972.293C944.096 928.545 971.435 878.066 994.831 825.484C1079.74 634.717 1087.36 598.068 1153.45 504.525C1185.47 459.147 1221.12 416.503 1255.97 373.386C1274.9 349.934 1294.14 326.746 1312.39 302.716C1386.1 205.965 1429.89 118.101 1421.06 0.948517H1404.39C1411.65 112.895 1370.11 199.182 1297.77 293.251C1249.51 356.034 1196.72 415.136 1149.09 478.444C1062.97 592.915 1042.36 669.737 983.528 801.297C958.239 857.875 930.321 912.875 888.576 959.673C782.427 1078.72 658.139 1067.15 606.036 1057.37C556.353 1048.06 510.349 1028.87 466.817 1003.63C405.829 968.244 352.676 922.761 302.571 873.597C262.929 834.686 225.916 793.304 190.165 750.871C129.441 678.781 71.2397 604.641 12.0398 531.342C8.25438 526.662 4.99471 521.404 0.420654 517.355V537.546C1.10413 538.072 1.68246 538.65 2.15564 539.281Z" fill="url(#paint19_linear_1_123)"/>
<path d="M992.097 959.095C1025.01 905.356 1049.3 847.411 1074.06 789.729C1097.35 735.359 1118.54 680.096 1145.09 627.146C1176.48 564.521 1216.7 507.837 1259.76 452.942C1305.45 394.734 1353.4 338.208 1394.61 276.583C1427.32 227.734 1453.76 175.941 1465.8 117.733C1473.9 78.5593 1474.79 39.6488 1470.59 0.895935H1461.65C1466.12 47.536 1463.7 93.4926 1450.82 139.028C1438.57 182.461 1418.8 222.371 1394.77 260.072C1361.39 312.443 1321.85 360.293 1283.31 408.826C1251.87 448.367 1220.22 487.804 1191.62 529.554C1155.03 582.977 1125.85 640.396 1100.82 699.971C1074.43 762.754 1049.14 825.958 1019.23 887.215C997.828 931.069 973.328 972.871 942.098 1010.62C914.601 1043.86 883.266 1072.09 846.937 1093.97H869.702C920.7 1058.37 959.816 1011.89 992.097 959.095Z" fill="url(#paint20_linear_1_123)"/>
<path d="M101.05 473.975C129.703 508.942 158.41 543.856 187.799 578.192C208.829 602.853 230.49 627.04 252.73 650.597C299.837 700.392 348.732 748.347 403.306 790.097C452.779 827.956 505.092 860.714 566.657 874.859C625.016 888.267 680.273 882.062 729.063 844.256C760.24 820.068 781.165 787.836 798.462 753.027C819.335 710.961 835.423 666.74 855.769 624.411C890.942 551.165 935.263 484.07 989.153 423.233C1037.05 369.179 1090.41 320.488 1140.46 268.485C1182.05 225.315 1220.59 179.832 1246.77 125.199C1265.65 85.8156 1276.58 44.5389 1278 0.843353H1272.17C1269.64 51.059 1255.34 98.6456 1229.84 143.761C1205.03 187.614 1172.69 225.736 1137.94 261.807C1090.78 310.708 1040.26 356.244 993.78 405.881C920.542 484.018 863.866 572.723 821.858 671.104C805.98 708.279 790.944 745.928 768.915 780.159C724.699 848.883 662.713 879.17 581.221 866.866C535.48 859.925 494.524 840.575 455.566 816.545C396.05 779.843 344.316 733.519 294.738 684.723C232.541 623.465 175.654 557.37 120.608 489.697C80.4404 440.217 40.4831 390.58 7.9915 335.474C5.36273 331.057 3.52259 326.167 0.578369 321.908V335.842C6.93999 343.94 11.4615 353.194 17.087 361.765C42.849 400.833 71.3974 437.798 101.05 473.975Z" fill="url(#paint21_linear_1_123)"/>
<path d="M83.5424 399.834C150.734 490.38 224.234 575.563 306.304 653.068C347.997 692.452 391.687 729.365 440.424 759.862C481.801 785.785 525.018 807.291 574.491 812.602C621.967 817.702 663.659 805.135 697.886 770.904C724.226 744.561 741.628 712.276 757.716 679.359C784.53 624.622 813.657 571.304 848.724 521.298C890.627 461.46 939.101 407.511 992.308 357.664C1037.52 315.283 1084.79 275.058 1127.64 230.1C1151.09 205.492 1172.9 179.516 1191.57 150.964C1221.85 104.587 1239.94 54.7923 1244.14 0.895935H1238.31C1235 41.5417 1224.06 80.7152 1204.19 118.101C1173.11 176.677 1128.06 223.79 1080.32 268.537C1044.15 302.453 1006.71 335.053 970.542 368.969C923.013 413.611 879.954 462.302 841.995 515.462C815.129 553.11 790.471 592.073 768.705 632.877C751.039 666.004 735.004 700.077 713.448 731.1C682.271 776.11 640.789 802.559 584.743 801.454C552.094 800.823 521.232 791.201 491.632 777.845C454.514 761.124 420.919 738.672 388.585 714.274C342.161 679.254 299.575 639.87 258.986 598.383C218.398 556.896 180.334 513.148 143.531 468.296C100.629 416.03 59.2526 362.764 31.0196 300.507C6.2566 245.612 -0.841081 187.877 1.47224 128.407C2.47117 102.642 2.99692 76.8767 0.578454 51.2168C0.578454 51.059 0.525879 50.9013 0.525879 50.7435V228.891C13.8274 292.673 45.2149 348.146 83.5424 399.834Z" fill="url(#paint22_linear_1_123)"/>
<path d="M1257.39 14.2517C1258.29 14.2517 1258.34 13.6733 1258.39 12.9898C1258.6 10.571 1258.86 5.94379 1259.02 0.895935H1256.81C1256.66 4.83957 1256.5 8.78321 1256.34 12.832C1256.39 13.3578 1256.5 14.2517 1257.39 14.2517Z" fill="url(#paint23_linear_1_123)"/>
<path d="M1254.55 26.1878C1250.87 53.4252 1243.04 79.4532 1232.16 104.64C1209.97 156.065 1175.8 199.182 1137.68 239.355C1098.51 280.579 1056.29 318.701 1015.02 357.874C982.318 388.897 951.614 421.761 923.066 456.675C867.231 524.926 823.015 600.224 787.369 680.726C770.913 717.902 753.826 754.814 726.749 785.995C695.94 821.488 657.297 840.628 610.19 841.89C560.664 843.204 516.027 826.483 473.652 802.979C425.913 776.478 383.117 742.983 342.423 706.649C291.846 661.429 244.633 613.001 199.997 561.944C198.104 559.788 196.264 561.103 197.894 562.996C227.283 596.858 258.04 629.407 289.953 660.851C333.801 704.02 379.489 744.929 430.54 779.58C475.439 810.078 522.757 835.317 577.278 843.362C630.694 851.197 678.538 839.156 718.18 800.981C745.939 774.27 763.605 740.933 779.64 706.544C795.833 671.788 810.975 636.505 829.271 602.8C852.562 559.788 878.85 518.669 908.555 479.759C935 445.107 963.917 412.664 994.621 381.799C1040.52 335.737 1089.57 292.883 1134.68 245.927C1161.97 217.48 1187.26 187.509 1208.45 154.225C1233.37 115.051 1250.19 72.8279 1256.81 26.7662C1257.08 24.7681 1258.08 21.2977 1256.29 21.1399C1254.24 20.7719 1254.76 24.3474 1254.55 26.1878Z" fill="url(#paint24_linear_1_123)"/>
<path d="M13.0913 80.0842C13.0913 112.843 10.0419 145.549 11.0409 178.412C12.4078 224.158 23.2384 267.433 42.3758 308.815C60.7772 348.514 84.9093 384.691 111.618 419.132C174.445 500.055 241.742 576.93 317.766 645.812C352.57 677.361 389.163 706.755 428.857 732.099C467.237 756.602 507.195 777.214 552.672 785.102C600.358 793.357 642.681 783.209 678.485 749.293C698.832 729.996 713.763 706.755 727.538 682.777C751.618 640.764 773.804 597.7 800.881 557.37C837.263 503.21 877.325 452.101 922.75 405.303C964.811 362.028 1010.97 323.17 1055.71 282.787C1101.98 241.037 1146.41 197.71 1181.16 145.391C1211.39 99.855 1227.9 51.5848 1232.47 0.948517H1227.74C1227.53 3.20954 1227.32 5.47056 1227.06 7.73157C1220.01 71.6185 1192.36 126.567 1152.87 176.204C1112.97 226.367 1064.76 268.117 1016.97 310.287C977.166 345.36 937.051 380.064 900.721 418.869C842.731 480.863 792.521 548.588 749.515 621.782C728.274 657.906 709.557 695.712 681.272 727.314C654.563 757.181 621.651 774.48 581.116 775.426C538.004 776.425 499.045 761.808 461.717 742.09C397.733 708.227 342.634 662.375 290.426 612.896C248.682 573.354 209.881 531.026 172.658 487.173C138.694 447.158 105.309 406.67 77.391 362.028C53.8372 324.432 35.0678 284.785 25.3414 241.195C15.0366 195.081 18.086 148.651 20.8199 102.116C22.66 72.1443 23.4487 42.1201 14.6686 12.8846C13.4593 8.88837 12.2501 4.83957 10.8831 0.895935H0.578369C10.778 26.3455 13.0913 53.1097 13.0913 80.0842Z" fill="url(#paint25_linear_1_123)"/>
<path d="M126.339 476.762C125.603 477.393 126.707 478.602 127.18 479.233C134.12 487.804 141.112 496.322 148.157 504.788C148.631 505.366 149.419 506.155 149.998 506.05C150.944 505.892 151.102 504.998 150.471 504.209C143.11 495.27 135.697 486.331 128.284 477.445C127.863 477.025 127.022 476.183 126.339 476.762Z" fill="url(#paint26_linear_1_123)"/>
<path d="M105.571 453.205C109.357 457.779 113.247 462.302 117.033 466.876C118.084 468.138 119.609 467.086 118.347 465.719C113.826 460.566 111.144 457.254 106.518 452.258C105.677 451.312 104.835 452.258 105.571 453.205Z" fill="url(#paint27_linear_1_123)"/>
<path d="M153.468 510.098C153.047 510.624 153.573 511.255 153.888 511.623C158.515 517.144 163.194 522.666 167.926 528.081C168.504 528.712 169.766 529.869 170.502 528.765C170.765 528.344 170.344 527.819 170.239 527.661C165.192 521.772 160.039 515.935 154.992 510.046C154.466 509.467 153.888 509.573 153.468 510.098Z" fill="url(#paint28_linear_1_123)"/>
<path d="M175.654 535.18C174.603 535.653 175.759 537.231 176.39 537.914C179.124 541.122 179.808 543.225 180.859 542.384C181.701 541.7 180.176 540.28 177.757 536.705C177.232 536.021 176.601 534.707 175.654 535.18Z" fill="url(#paint29_linear_1_123)"/>
<path d="M1897.39 454.835C1877.36 470.347 1857.65 486.226 1838.3 502.684C1806.86 529.449 1777.47 558.158 1750.08 589.024C1722.37 620.257 1698.29 654.068 1679.68 691.506C1660.23 730.679 1647.66 771.641 1646.56 815.914C1645.66 851.197 1651.66 884.744 1665.43 917.292C1679.47 950.577 1699.45 979.602 1723.37 1006.47C1741.14 1026.45 1760.54 1044.49 1780.25 1062.42C1792.24 1073.3 1804.7 1083.56 1817.06 1093.91H1859.01C1827.94 1069.41 1797.03 1044.54 1768.85 1016.72C1733.46 981.758 1702.76 943.425 1685.41 895.734C1666.69 844.256 1667.11 792.516 1683.1 740.775C1700.02 685.985 1730.94 639.292 1768.06 596.28C1806.54 551.743 1850.97 513.727 1897.34 477.813C1904.65 472.134 1912.27 466.981 1919.95 461.776V437.798C1912.17 443.057 1904.86 449.051 1897.39 454.835Z" fill="url(#paint30_linear_1_123)"/>
<path d="M1775.84 596.438C1736.77 641.343 1704.39 689.876 1688.41 748.189C1678.36 784.891 1675.95 821.646 1683.2 858.979C1690.35 895.576 1706.44 928.282 1728.21 958.201C1751.18 989.803 1778.78 1017.09 1808.59 1042.33C1829.41 1059.95 1850.65 1076.98 1872.05 1093.86H1882.51C1879.52 1091.55 1876.47 1089.18 1873.47 1086.87C1827.63 1050.8 1781.62 1014.78 1744.71 968.928C1719.53 937.641 1699.87 903.305 1690.98 863.922C1678.1 806.818 1687.35 752.08 1712.06 699.656C1737.67 645.391 1775.52 600.276 1818.06 558.631C1849.76 527.608 1884.51 500.266 1920 473.922V468.506C1867.79 506.418 1818.37 547.537 1775.84 596.438Z" fill="url(#paint31_linear_1_123)"/>
<path d="M1853.07 564.784C1810.64 604.43 1773.53 648.178 1748.92 701.339C1725.1 752.711 1717.16 805.871 1733.09 861.187C1745.82 905.198 1771.42 941.48 1802.7 974.081C1838.25 1011.1 1878.89 1042.12 1920 1072.46V1065.99C1903.23 1053.95 1886.93 1041.23 1870.84 1028.24C1828.15 993.851 1788.04 957.149 1760.07 908.984C1727.21 852.406 1722.05 793.094 1742.19 731.31C1760.07 676.52 1793.4 631.457 1832.57 590.338C1859.38 562.207 1889.09 537.494 1919.95 514.095V509.467C1896.87 526.872 1874.26 544.96 1853.07 564.784Z" fill="url(#paint32_linear_1_123)"/>
<path d="M1799.39 495.691C1735.46 554.162 1676.47 616.787 1637.99 695.765C1619.16 734.307 1607.33 774.795 1604.23 817.913C1598.71 895.681 1626.42 961.671 1674.11 1020.93C1695.29 1047.27 1719.06 1070.99 1743.71 1093.91H1784.36C1736.72 1051.9 1690.56 1008.47 1659.49 952.049C1641.98 920.184 1631.41 885.848 1628.52 849.304C1623.9 790.36 1639.46 736.148 1666.43 684.407C1690.82 637.662 1723.26 597.016 1759.43 559C1800.81 515.514 1846.5 477.024 1893.82 440.322C1902.49 433.592 1911.06 426.756 1920 420.394V395.417C1878.83 427.65 1837.98 460.356 1799.39 495.691Z" fill="url(#paint33_linear_1_123)"/>
<path d="M1840.09 551.27C1795.13 592.862 1754.97 638.346 1727.78 693.872C1690.61 769.8 1686.51 845.886 1729.15 921.288C1754.81 966.667 1791.77 1002.21 1831.2 1035.44C1855.28 1055.79 1880.46 1074.72 1905.49 1093.91H1916.95C1903.12 1083.45 1889.35 1072.99 1875.63 1062.47C1833.99 1030.5 1793.87 996.954 1760.96 955.572C1738.4 927.283 1721.53 896.154 1712.06 861.293C1702.55 826.378 1703.07 790.991 1711.54 756.024C1729.36 682.199 1773.31 624.096 1825.63 571.567C1854.75 542.331 1886.72 516.25 1920.11 492.01V486.331C1892.24 506.575 1865.32 527.924 1840.09 551.27Z" fill="url(#paint34_linear_1_123)"/>
<path d="M1786.77 453.626C1726.94 508.836 1669.27 566.098 1623.79 634.244C1590.77 683.776 1565.75 736.831 1554.86 795.828C1545.51 846.675 1547.71 896.838 1563.59 946.265C1581.1 1000.74 1612.59 1046.75 1649.71 1089.45C1651.02 1090.92 1652.34 1092.39 1653.71 1093.86H1661.7C1645.56 1075.72 1629.99 1057.11 1615.96 1037.18C1577.63 982.967 1554.92 923.444 1554.13 856.455C1553.44 800.561 1567.69 748.084 1591.61 698.026C1622.16 634.086 1665.9 579.612 1714.43 528.712C1757.65 483.387 1804.54 441.9 1851.13 400.097C1874.1 379.485 1897.08 358.873 1920 338.314V331.636C1875.57 372.281 1831.04 412.822 1786.77 453.626Z" fill="url(#paint35_linear_1_123)"/>
<path d="M1905.44 393.051C1838.14 447.684 1771.58 503.052 1713.8 568.044C1681.26 604.693 1652.29 643.814 1629.84 687.615C1605.55 734.991 1590.46 784.944 1590.04 838.419C1589.62 896.102 1606.97 948.841 1638.35 997.059C1661.8 1033.13 1691.14 1064.05 1721.69 1093.91H1731.36C1720.74 1083.82 1710.38 1073.46 1700.24 1062.89C1680.47 1042.23 1661.96 1020.41 1646.08 996.48C1625.05 964.826 1609.38 930.753 1601.5 893.63C1594.66 861.345 1594.51 828.639 1599.5 795.828C1606.18 751.975 1621.95 711.539 1643.19 673.05C1659.8 642.868 1679.99 615.104 1701.92 588.603C1736.09 547.326 1774.73 510.572 1814.64 474.974C1841.24 451.207 1868.95 428.702 1896.71 406.354C1904.54 400.097 1912.01 393.314 1920 387.267V381.694C1915.11 385.374 1910.27 389.16 1905.44 393.051Z" fill="url(#paint36_linear_1_123)"/>
<path d="M1868.69 403.936C1814.32 449.577 1761.49 496.795 1712.85 548.536C1697.45 564.941 1682.78 582.083 1669.11 599.961C1639.83 638.24 1614.17 678.623 1596.29 723.791C1584.2 754.341 1575.53 785.68 1572.79 818.176C1570.22 848.883 1571.53 879.644 1578.79 910.036C1586.04 940.428 1597.61 968.822 1613.17 995.692C1634.25 1032.08 1661.33 1063.79 1690.56 1093.81C1690.61 1093.86 1690.61 1093.86 1690.67 1093.91H1700.71C1676.31 1069.25 1653.23 1043.49 1633.46 1014.78C1572.79 926.704 1562.17 832.425 1598.66 732.52C1621.53 669.947 1659.02 616.261 1702.71 566.677C1745.45 518.143 1793.03 474.658 1842.19 432.803C1867.95 410.824 1894.03 389.16 1920.05 367.444V359.872C1902.44 374.017 1885.98 389.423 1868.69 403.936Z" fill="url(#paint37_linear_1_123)"/>
<path d="M1869.11 364.762C1837.98 394.05 1806.6 423.075 1775.37 452.206C1728.73 495.744 1683.67 540.806 1644.24 591.074C1602.55 644.235 1568.69 701.654 1550.5 767.329C1531.84 834.739 1532.73 901.57 1557.23 967.613C1574.58 1014.41 1602.13 1055 1633.83 1093.07C1634.1 1093.34 1634.31 1093.65 1634.57 1093.91H1643.82C1623.58 1070.36 1604.76 1045.75 1588.83 1018.83C1563.28 975.605 1547.24 929.176 1544.09 878.907C1539.14 800.035 1562.07 728.155 1601.6 660.903C1635.94 602.59 1680.05 552.111 1727.47 504.367C1773.84 457.674 1823.42 414.294 1871.47 369.389C1887.67 354.246 1903.81 339.102 1919.95 323.959V316.177C1903.07 332.424 1886.19 348.672 1869.11 364.762Z" fill="url(#paint38_linear_1_123)"/>
<path d="M1920 557.212C1872.79 595.859 1830.62 638.924 1803.07 694.187C1765.8 769.064 1769.48 841.574 1817.9 910.562C1845.82 950.366 1881.99 981.81 1920 1011.31V1002.16C1877.31 968.928 1837.72 932.646 1810.96 884.323C1777.84 824.485 1778.68 763.49 1806.7 702.285C1828.99 653.542 1863.43 613.948 1903.23 578.718C1908.75 573.828 1914.37 569.095 1920 564.363V557.212Z" fill="url(#paint39_linear_1_123)"/>
<path d="M1827.57 603.063C1795.66 638.556 1768.69 677.046 1751.97 722.056C1734.99 767.802 1731.89 814.179 1746.61 861.187C1759.54 902.569 1783.93 936.905 1813.53 967.771C1845.87 1001.53 1882.36 1030.34 1920.05 1057.74V1050.43C1910.69 1043.33 1901.34 1036.23 1892.08 1028.98C1855.17 1000.11 1819.74 969.664 1791.45 931.857C1732.73 853.353 1729.36 770.904 1774.89 685.354C1799.97 638.24 1834.93 599.067 1874.42 563.732C1889.09 550.586 1904.12 537.862 1920.05 526.189V520.089C1887.25 545.486 1855.49 572.04 1827.57 603.063Z" fill="url(#paint40_linear_1_123)"/>
<path d="M1491.77 92.4935C1491.98 91.8625 1491.88 91.1789 1491.3 91.0738C1490.72 90.916 1490.41 91.7048 1490.3 92.3357C1490.25 92.5987 1490.25 93.1771 1490.72 93.2822C1491.3 93.3874 1491.56 93.1245 1491.77 92.4935Z" fill="url(#paint41_linear_1_123)"/>
<path d="M1894.29 290.254C1860.27 330.794 1822.63 367.864 1785.2 405.197C1751.81 438.482 1717.95 471.24 1685.36 505.261C1633.88 558.999 1586.78 616.156 1552.18 682.672C1517.59 749.135 1498.5 819.227 1502.76 894.629C1505.86 949.472 1522.43 1000.48 1549.19 1048.33C1557.97 1064.05 1567.69 1079.14 1577.84 1093.91H1588.2C1571.9 1071.3 1557.02 1047.8 1544.66 1022.67C1514.33 960.725 1502.5 895.628 1511.23 826.956C1519.74 759.967 1545.14 699.288 1580.84 642.604C1629.78 564.888 1694.24 500.581 1759.43 436.957C1814.69 383.06 1870.95 330.111 1920 270.325V258.126C1911.59 268.958 1903.12 279.737 1894.29 290.254Z" fill="url(#paint42_linear_1_123)"/>
<path d="M1905.49 307.816C1890.82 323.065 1875.94 338.103 1861.22 353.299C1860.27 354.246 1858.07 355.298 1859.38 356.822C1860.33 357.874 1861.59 355.981 1862.48 355.087C1873.58 343.782 1884.62 332.477 1895.66 321.172C1903.75 312.864 1911.9 304.609 1920.05 296.301V292.41C1915.22 297.563 1910.38 302.716 1905.49 307.816Z" fill="url(#paint43_linear_1_123)"/>
<path d="M1844.66 371.23C1844.34 371.125 1844.03 370.914 1843.77 371.02C1843.45 371.125 1843.29 371.493 1843.03 371.756C1843.4 371.913 1843.77 372.176 1844.08 372.124C1844.34 372.071 1844.45 371.598 1844.66 371.23Z" fill="url(#paint44_linear_1_123)"/>
<path d="M1809.75 405.198C1810.33 404.619 1813.85 401.359 1814.69 400.465C1815.53 399.571 1814.48 398.73 1813.64 399.571C1812.8 400.413 1809.54 403.883 1808.96 404.514C1808.38 405.145 1809.17 405.776 1809.75 405.198Z" fill="url(#paint45_linear_1_123)"/>
<path d="M1835.41 380.379C1835.67 380.064 1835.98 379.748 1835.88 379.538C1835.83 379.327 1835.46 378.907 1835.14 379.17C1834.83 379.433 1834.78 379.643 1834.62 379.906C1834.46 380.221 1835.2 380.589 1835.41 380.379Z" fill="url(#paint46_linear_1_123)"/>
<path d="M1677.21 179.359C1676.58 179.779 1676.37 180.884 1676.16 181.725C1676.1 182.04 1676.37 183.565 1677.1 183.355C1677.84 183.145 1678.1 181.304 1678.26 180.463C1678.42 179.727 1678.15 178.728 1677.21 179.359Z" fill="url(#paint47_linear_1_123)"/>
<path d="M1682.15 162.322C1679.94 162.901 1680.57 165.319 1679.84 167.58C1679.1 169.841 1679.94 170.315 1680.83 170.104C1681.78 169.894 1682.52 166.424 1682.78 165.056C1683.04 163.689 1683.52 161.954 1682.15 162.322Z" fill="url(#paint48_linear_1_123)"/>
<path d="M1263.81 863.08C1278.69 808.921 1295.72 755.498 1318.75 704.178C1352.4 629.196 1398.56 562.26 1450.03 498.741C1500.34 436.642 1553.44 376.698 1598.4 310.34C1624.74 271.43 1647.45 230.731 1661.7 185.721C1681.36 123.622 1678.78 62.1012 1664.22 0.895935H1658.96C1660.49 7.52125 1661.96 14.1466 1663.27 20.8245C1677.63 92.6512 1670.53 162.007 1639.67 228.68C1609.65 293.566 1566.22 349.461 1521.85 404.672C1483.41 452.574 1442.93 498.793 1406.29 548.22C1358.28 613.001 1319.27 682.672 1291.51 758.495C1269.75 817.86 1253.82 879.013 1237.94 940.113C1226.48 984.229 1215.23 1028.4 1203.82 1072.57C1201.98 1079.66 1200.14 1086.76 1198.3 1093.91H1205.66C1225.32 1016.99 1242.78 939.587 1263.81 863.08Z" fill="url(#paint49_linear_1_123)"/>
<path d="M1683.67 155.855C1684.62 155.592 1685.04 153.068 1685.36 151.543C1685.57 150.596 1685.57 148.493 1684.46 149.019C1683.41 149.492 1683.04 151.596 1682.67 152.963C1682.31 154.382 1682.15 156.328 1683.67 155.855Z" fill="url(#paint50_linear_1_123)"/>
<path d="M1210.86 1019.72C1231.47 943.057 1250.72 866.025 1275.37 790.517C1300.5 713.643 1335.84 641.869 1381.89 575.3C1414.01 528.975 1449.98 485.7 1485.62 442.163C1532.94 384.48 1580.47 326.956 1617.32 261.544C1656.76 191.558 1673.53 117.417 1660.96 37.3351C1659.02 25.031 1656.65 12.9372 1653.86 0.895935H1649.82C1650.76 5.0499 1651.66 9.15128 1652.5 13.3578C1665.11 75.0363 1663.59 135.821 1642.66 195.712C1623.05 251.764 1590.83 300.56 1556.02 347.831C1512.65 406.723 1464.01 461.408 1419.01 519.037C1374.22 576.404 1335.05 637.189 1304.97 703.652C1276.27 767.013 1257.02 833.582 1238.31 900.308C1223.17 954.152 1208.39 1008.05 1193.36 1061.89C1190.36 1072.57 1187.31 1083.24 1184.21 1093.91H1190.15C1197.09 1069.2 1204.19 1044.49 1210.86 1019.72Z" fill="url(#paint51_linear_1_123)"/>
<path d="M1687.14 65.8345C1687.2 66.6232 1687.35 67.0439 1687.51 67.8852C1687.62 68.7265 1689.4 68.9368 1689.19 67.3594C1688.98 65.7819 1688.83 64.0993 1688.35 63.9942C1686.93 63.6261 1687.09 65.0458 1687.14 65.8345Z" fill="url(#paint52_linear_1_123)"/>
<path d="M1683.83 31.6563C1683.78 31.4986 1683.73 31.3408 1683.67 31.0779C1683.62 30.815 1682.94 31.0253 1682.99 31.2882C1683.04 31.5511 1683.1 31.7089 1683.15 31.8141C1683.2 32.0244 1683.88 31.8141 1683.83 31.6563Z" fill="url(#paint53_linear_1_123)"/>
<path d="M1685.36 39.0178C1685.2 38.5445 1683.78 38.9126 1683.94 39.6487C1684.41 41.752 1685.2 44.4337 1685.62 45.9586C1686.04 47.4834 1687.88 47.6412 1687.35 45.8008C1686.83 43.9605 1686.25 41.3314 1685.36 39.0178Z" fill="url(#paint54_linear_1_123)"/>
<path d="M1687.41 140.553C1688.25 136.084 1688.98 131.299 1689.25 128.407C1689.51 125.515 1689.98 123.044 1688.09 122.938C1686.25 122.833 1686.3 127.355 1686.04 129.038C1685.3 133.297 1685.09 136.031 1684.67 140.343C1684.57 141.184 1684.04 142.972 1685.62 143.182C1687.14 143.445 1687.25 141.395 1687.41 140.553Z" fill="url(#paint55_linear_1_123)"/>
<path d="M1686.88 52.5839C1686.2 52.5839 1686.14 53.8984 1686.2 54.3191C1686.25 54.6346 1686.62 55.2656 1687.14 55.1604C1687.67 55.0552 1687.62 54.5294 1687.62 54.2665C1687.56 53.8459 1687.56 52.5839 1686.88 52.5839Z" fill="url(#paint56_linear_1_123)"/>
<path d="M1164.7 1084.55C1173.48 1058.37 1182.42 1032.24 1190.1 1005.63C1197.25 980.759 1205.61 956.203 1213.12 931.437C1219.96 908.827 1225.9 885.901 1233 863.396C1242.93 831.952 1253.5 800.718 1264.07 769.537C1280 722.424 1300.98 677.519 1325.37 634.297C1354.6 582.504 1389.88 534.812 1427.16 488.592C1457.92 450.471 1489.67 413.085 1519.53 374.174C1553.92 329.375 1586.72 283.629 1611.17 232.309C1631.31 189.98 1643.14 145.969 1644.51 99.224C1645.19 76.4035 1644.4 53.6881 1640.4 30.9727C1638.62 20.9296 1636.88 10.8865 1634.94 0.895935H1630.15C1639.93 46.3266 1643.4 92.3358 1635.51 139.291C1625.84 196.658 1601.03 247.715 1569.85 296.09C1527 362.501 1475.58 422.339 1426 483.545C1377 544.066 1332.05 607.217 1297.56 677.361C1264.86 743.93 1242.99 814.495 1221.06 885.06C1201.98 946.475 1184.21 1008.31 1162.7 1068.99C1159.76 1077.3 1156.82 1085.66 1153.82 1093.97H1161.6C1162.55 1090.76 1163.65 1087.66 1164.7 1084.55Z" fill="url(#paint57_linear_1_123)"/>
<path d="M1184.52 962.986C1203.77 903.831 1222.69 844.624 1242.46 785.68C1260.07 733.098 1282.21 682.462 1309.49 634.139C1341.88 576.825 1381.26 524.348 1422.58 473.291C1471.11 413.453 1520.9 354.561 1562.38 289.36C1583.99 255.392 1602.08 219.689 1614.12 181.304C1632.15 123.78 1632.57 65.3087 1620.85 6.46961C1620.48 4.62925 1620.11 2.7363 1619.69 0.895935H1614.59C1620.37 29.1324 1623.84 57.7895 1623.37 87.2353C1622.9 117.26 1618.38 146.495 1610.44 175.205C1597.45 222.055 1573.84 264.015 1547.24 304.241C1521.95 342.468 1493.61 378.486 1465.01 414.242C1421.16 469.032 1375.63 522.508 1336.94 581.347C1310.86 620.994 1287.99 662.323 1268.85 705.65C1251.03 745.981 1236.1 787.468 1222.64 829.48C1208.29 874.333 1192.83 918.87 1178.11 963.669C1165.23 1002.79 1151.35 1041.54 1135.89 1079.77C1133.95 1084.55 1131.79 1089.29 1129.74 1094.02H1137.84C1154.82 1050.8 1170.17 1007.1 1184.52 962.986Z" fill="url(#paint58_linear_1_123)"/>
<path d="M1062.02 943.53C1097.09 870.337 1125.64 794.356 1156.4 719.322C1183.79 652.49 1217.33 589.076 1259.13 530.079C1297.35 476.183 1339.99 425.705 1380.21 373.386C1415.12 328.008 1449.19 281.998 1475.9 231.047C1513.28 159.693 1527.37 84.3433 1516.27 4.41892C1516.12 3.20954 1515.91 2.05274 1515.75 0.843353H1511.86C1516.9 36.9671 1517.43 73.3537 1512.02 110.003C1502.45 174.731 1474.53 231.783 1439.04 285.627C1398.29 347.358 1351.24 404.304 1305.24 462.039C1246.04 536.284 1195.14 615.367 1158.55 703.337C1127.06 779.054 1098.25 855.929 1063.23 930.175C1035.21 989.592 1002.03 1045.54 957.608 1093.81H965.336C1004.98 1048.75 1036.05 997.795 1062.02 943.53Z" fill="url(#paint59_linear_1_123)"/>
<path d="M992.308 1040.91C1029.16 990.539 1056.45 934.907 1080.84 877.803C1105.92 819.227 1129.58 760.072 1154.08 701.233C1181.37 635.822 1215.96 574.459 1257.66 517.092C1299.51 459.515 1345.67 405.25 1388.46 348.409C1420.38 305.976 1450.66 262.543 1473.9 214.536C1506.86 146.337 1517.27 75.1941 1507.07 0.895935H1502.18C1502.97 7.04801 1503.71 13.2001 1504.29 19.4047C1508.97 70.2514 1503.66 119.941 1487.2 168.369C1469.38 221.003 1440.83 267.801 1408.81 312.706C1371.69 364.762 1331.37 414.4 1291.46 464.3C1228.95 542.489 1177.85 627.146 1140.41 720.11C1112.18 790.202 1084.52 860.504 1051.56 928.597C1027.8 977.709 999.984 1024.24 964.6 1066.05C956.399 1075.72 947.671 1084.92 938.681 1093.86H948.355C964.285 1077.35 978.691 1059.47 992.308 1040.91Z" fill="url(#paint60_linear_1_123)"/>
<path d="M1076.64 1076.56C1095.04 1043.54 1110.18 1008.94 1124.48 974.028C1154.24 901.465 1179.42 827.167 1207.6 754.026C1229.26 697.763 1254.82 643.551 1286.52 592.284C1310.02 554.267 1336.52 518.406 1364.28 483.439C1383.47 459.252 1402.66 435.064 1421.95 410.929C1450.08 375.752 1477.63 340.154 1502.55 302.663C1524.69 269.379 1544.51 234.833 1558.6 197.289C1575.42 152.7 1583.52 106.638 1581.41 58.7885C1580.57 39.2281 1578.16 19.9306 1574.69 0.895935H1555.6C1567.27 73.3011 1561.12 143.445 1531.15 211.118C1509.49 259.967 1480.05 303.925 1448.61 346.674C1404.03 407.248 1354.76 464.089 1310.23 524.716C1265.02 586.184 1227.37 651.964 1199.19 722.845C1173.43 787.52 1149.09 852.774 1123.38 917.45C1098.98 978.76 1071.49 1038.55 1035.42 1093.86H1066.96C1070.22 1088.13 1073.43 1082.35 1076.64 1076.56Z" fill="url(#paint61_linear_1_123)"/>
<path d="M1035.05 1042.44C1068.12 988.54 1093.25 930.806 1116.81 872.387C1139.15 817.019 1160.81 761.334 1183.52 706.071C1220.85 615.21 1275.11 534.759 1336.26 458.463C1382.57 400.728 1429.63 343.519 1469.53 280.947C1497.24 237.567 1519.69 191.821 1531.26 141.289C1541.98 94.439 1541.98 47.6412 1534.89 0.843353H1530.31C1533.26 20.246 1534.89 39.7539 1535.15 59.3669C1535.78 101.643 1528.31 143.288 1513.54 183.092C1499.19 221.845 1479.26 257.916 1456.39 292.304C1436.41 322.329 1414.8 351.196 1392.62 379.643C1357.65 424.443 1321.8 468.559 1287.68 513.989C1238.62 579.243 1199.72 650.439 1169.22 726.157C1152.87 766.803 1136.63 807.449 1120.49 848.2C1098.35 904.041 1075.01 959.41 1045.62 1011.89C1032.11 1035.97 1017.44 1059.42 1000.46 1081.29C997.197 1085.45 993.99 1089.66 990.783 1093.81H999.931C1012.5 1077.35 1024.22 1060.16 1035.05 1042.44Z" fill="url(#paint62_linear_1_123)"/>
<path d="M1137.42 1054.69C1158.87 1001.58 1176.58 947.106 1194.83 892.842C1215.33 831.899 1234.63 770.536 1260.07 711.382C1290.94 639.765 1331.94 574.301 1379.47 512.728C1419.59 460.777 1462.49 411.034 1501.82 358.452C1537.3 310.971 1570.53 262.175 1592.93 206.806C1620.06 139.765 1622.95 70.9875 1608.81 0.895935H1589.3C1598.87 52.7416 1600.13 104.903 1587.2 157.432C1576.1 202.547 1555.86 243.614 1531.52 282.945C1507.39 321.961 1479.84 358.452 1451.34 394.313C1426.21 425.968 1401.19 457.727 1375.95 489.329C1352.34 518.827 1330.16 549.325 1309.49 580.979C1279.89 626.304 1255.18 674.154 1234.47 724.212C1208.08 788.099 1187.15 853.931 1163.23 918.659C1146.77 963.196 1130.84 1007.94 1110.6 1050.96C1103.87 1065.26 1097.51 1079.82 1090.31 1093.91H1121.01C1126.59 1080.87 1132.11 1067.83 1137.42 1054.69Z" fill="url(#paint63_linear_1_123)"/>
<path d="M1039.1 1072.78C1069.49 1025.77 1092.67 975.185 1113.81 923.549C1129 886.479 1143.41 849.146 1157.92 811.813C1173.32 772.166 1188.31 732.362 1205.55 693.451C1223.74 652.385 1244.77 612.843 1268.96 574.984C1302.92 521.824 1342.78 473.028 1381.94 423.759C1423.74 371.177 1465.59 318.648 1499.55 260.44C1520.95 223.79 1537.88 185.3 1546.93 143.708C1554.5 109.057 1557.34 74.0898 1554.13 38.6497C1552.97 25.9775 1551.5 13.4104 1549.61 0.895935H1545.09C1552.71 48.3773 1552.71 95.5432 1542.09 142.762C1529.05 200.759 1501.55 251.974 1468.85 300.665C1427.21 362.712 1379.05 419.763 1332.94 478.444C1297.4 523.665 1264.28 570.568 1236.2 620.783C1207.18 672.734 1185.05 727.787 1163.65 783.103C1136.57 853.195 1110.34 923.602 1077.43 991.275C1061.13 1024.77 1042.94 1057.16 1021.64 1087.76C1020.23 1089.81 1018.86 1091.81 1017.44 1093.86H1025.64C1030.06 1086.87 1034.58 1079.82 1039.1 1072.78Z" fill="url(#paint64_linear_1_123)"/>
<path d="M1264.49 1021.3C1275.79 952.732 1288.99 884.534 1307.65 817.544C1332.52 728.418 1372.38 646.496 1426.37 571.356C1466.27 515.83 1511.44 464.615 1554.97 411.981C1592.67 366.392 1629.47 320.068 1659.28 268.695C1683.36 227.208 1701.55 183.513 1707.02 135.453C1712.22 89.917 1707.54 45.0121 1695.71 0.895935H1689.93C1690.14 1.63208 1690.35 2.36823 1690.51 3.15695C1712.06 85.3949 1706.49 164.899 1667.64 241.405C1645.77 284.522 1618.27 323.854 1588.99 362.081C1543.72 421.183 1493.67 476.341 1447.82 534.97C1378.42 623.728 1327.27 721.53 1298.4 830.795C1278.9 904.673 1264.23 979.549 1250.82 1054.74C1248.51 1067.78 1246.35 1080.82 1244.2 1093.86H1253.08C1256.81 1069.67 1260.55 1045.43 1264.49 1021.3Z" fill="url(#paint65_linear_1_123)"/>
<path d="M1478.58 1084.08C1460.81 1041.18 1448.35 996.954 1443.77 950.629C1437.62 888.688 1443.61 828.008 1462.07 768.591C1480.84 708.227 1510.54 653.489 1546.93 602.012C1580.26 554.846 1618.69 511.886 1657.91 469.716C1694.92 429.964 1732.83 391.001 1768.43 349.882C1804.86 307.816 1839.19 264.384 1863.17 213.642C1884.93 167.58 1890.77 119.468 1880.78 69.673C1875.99 45.8008 1868.21 23.0329 1858.91 0.843353H1836.56C1843.35 18.1954 1849.18 35.9154 1853.65 54.2139C1862.38 89.8644 1864.06 125.778 1856.33 161.954C1846.13 209.436 1822.63 250.555 1794.98 289.465C1759.33 339.628 1717.85 385.006 1676.21 430.121C1640.25 469.085 1603.92 507.627 1570.32 548.746C1530.42 597.542 1495.3 649.335 1468.96 706.755C1442.41 764.595 1426.16 825.221 1422.64 888.74C1419.32 949.472 1426.95 1009.1 1444.98 1067.31C1447.72 1076.19 1450.61 1085.03 1453.45 1093.86H1482.63C1481.31 1090.6 1479.94 1087.34 1478.58 1084.08Z" fill="url(#paint66_linear_1_123)"/>
<path d="M1281 1011.36C1286.36 972.24 1292.88 933.33 1301.19 894.735C1305.81 873.281 1309.44 851.618 1315.33 830.532C1326.48 790.517 1339.36 751.081 1356.29 712.959C1373.53 674.101 1393.88 637.136 1417.12 601.643C1453.76 545.644 1497.24 494.955 1540.25 443.951C1582.68 393.682 1625.37 343.572 1660.65 287.782C1679.47 258.021 1696.29 227.208 1706.91 193.608C1718.01 158.536 1723.79 122.623 1721.58 85.4475C1719.85 56.6327 1714.69 28.6591 1707.49 0.948517H1698.24C1705.54 29.2901 1710.43 58.2101 1711.7 88.024C1714.33 151.753 1695.61 209.961 1664.27 264.752C1631.36 322.171 1589.88 373.228 1547.71 423.812C1501.76 478.865 1454.6 532.919 1414.12 592.389C1352.19 683.408 1314.28 784.102 1291.72 891.317C1277.58 958.516 1266.49 1026.19 1256.39 1094.02H1270.64C1274.01 1066.36 1277.21 1038.86 1281 1011.36Z" fill="url(#paint67_linear_1_123)"/>
<path d="M1573.06 1093.34C1542.19 1047.96 1518.06 999.635 1506.86 945.423C1491.93 873.018 1500.55 802.769 1526.58 734.202C1552.13 666.95 1592.09 608.637 1638.41 554.32C1685.51 499.109 1738.25 449.314 1789.46 397.994C1835.41 351.985 1881.41 305.923 1919.95 253.289V230.784C1912.69 242.562 1904.7 253.867 1896.6 265.067C1870.89 300.507 1841.14 332.477 1810.96 364.026C1773.53 403.147 1734.88 441.058 1696.92 479.654C1662.7 514.515 1629.94 550.639 1600.34 589.55C1563.33 638.24 1531.99 690.139 1511.96 748.294C1491.3 808.237 1483.62 869.495 1493.04 932.488C1501.24 987.541 1522.64 1037.49 1551.55 1084.61C1553.5 1087.76 1555.6 1090.76 1557.76 1093.81H1573.48C1573.32 1093.7 1573.21 1093.49 1573.06 1093.34Z" fill="url(#paint68_linear_1_123)"/>
<path d="M1359.6 1025.72C1357.97 965.93 1360.39 906.355 1371.95 847.411C1383.63 787.888 1403.13 731.1 1431.1 677.204C1466.75 608.426 1514.07 547.957 1564.49 489.697C1602.76 445.423 1642.56 402.463 1679.1 356.665C1715.01 311.707 1748.87 265.383 1771 211.697C1790.4 164.688 1795.87 115.892 1788.14 65.7819C1784.72 43.5398 1779.31 21.9813 1772.53 0.843353H1753.39C1761.54 27.5023 1767.58 54.7397 1769.95 83.1339C1773.52 125.094 1767.9 165.898 1753.02 205.124C1739.98 239.512 1721.74 271.272 1700.87 301.506C1662.64 356.875 1618.32 407.301 1574.21 457.937C1528.73 510.151 1483.94 562.891 1446.77 621.625C1414.86 671.998 1389.3 725.211 1371.38 782.157C1347.35 858.348 1339.15 936.905 1336.57 1016.2C1335.73 1042.07 1336.2 1067.99 1337.41 1093.86H1364.38C1361.86 1071.25 1360.23 1048.48 1359.6 1025.72Z" fill="url(#paint69_linear_1_123)"/>
<path d="M1666.01 212.433C1666.01 212.59 1666.59 212.906 1666.69 212.801C1666.95 212.643 1667.01 212.275 1667.22 211.959C1666.95 211.802 1666.59 211.539 1666.43 211.591C1666.17 211.802 1665.96 212.17 1666.01 212.433Z" fill="url(#paint70_linear_1_123)"/>
<path d="M1690.56 104.272C1690.61 101.59 1691.09 94.2813 1689.19 94.2813C1687.3 94.2813 1688.35 100.749 1688.35 103.904C1688.35 106.901 1687.46 112.054 1689.14 112.054C1690.77 112.107 1690.46 106.954 1690.56 104.272Z" fill="url(#paint71_linear_1_123)"/>
<path d="M1659.65 226.945C1659.17 227.471 1659.07 227.629 1658.7 228.155C1658.39 228.68 1659.33 229.364 1659.86 228.838C1660.33 228.312 1660.75 227.892 1661.07 227.419C1661.43 226.893 1660.07 226.472 1659.65 226.945Z" fill="url(#paint72_linear_1_123)"/>
<path d="M1689.35 79.1377C1688.3 79.1377 1688.2 82.3978 1688.14 83.6597C1688.09 84.9217 1687.98 87.1301 1689.19 87.1301C1690.35 87.1301 1690.19 84.8691 1690.19 83.2917C1690.19 81.872 1690.4 79.1377 1689.35 79.1377Z" fill="url(#paint73_linear_1_123)"/>
<path d="M1670.42 199.55C1670.58 200.128 1670.74 200.917 1670.95 201.759C1672.05 199.235 1673.21 196.763 1674.16 194.187C1674.42 193.556 1675.05 191.821 1673.84 191.821C1672.63 191.821 1671.74 196.816 1670.42 199.55Z" fill="url(#paint74_linear_1_123)"/>
<path d="M1655.23 237.041C1654.55 238.25 1652.81 240.879 1651.55 243.193C1651.23 243.771 1652.23 244.665 1652.81 243.824C1654.44 241.51 1655.86 238.881 1656.49 237.83C1657.02 236.778 1655.91 235.884 1655.23 237.041Z" fill="url(#paint75_linear_1_123)"/>
<path d="M1432.89 253.131C1432.63 253.604 1432.42 253.972 1432.21 254.393C1432 254.814 1432.73 255.287 1432.94 254.919C1433.15 254.551 1433.42 254.077 1433.63 253.552C1433.84 253.026 1433.15 252.658 1432.89 253.131Z" fill="url(#paint76_linear_1_123)"/>
<path d="M1414.8 281.157C1414.33 281.788 1413.49 283.103 1413.02 283.839C1412.54 284.575 1413.65 285.258 1414.07 284.68C1414.49 284.102 1415.38 282.682 1415.85 281.946C1416.33 281.315 1415.28 280.526 1414.8 281.157Z" fill="url(#paint77_linear_1_123)"/>
<path d="M1392.41 313.863C1391.51 314.915 1390.25 316.702 1388.25 319.174C1387.73 319.963 1388.67 320.488 1389.2 319.857C1390.04 318.911 1392.09 316.282 1393.56 314.336C1393.98 313.81 1393.3 312.864 1392.41 313.863Z" fill="url(#paint78_linear_1_123)"/>
<path d="M1441.3 238.093C1441.14 238.356 1441.25 238.618 1441.51 238.671C1441.72 238.776 1442.14 238.724 1442.3 238.513C1442.46 238.303 1442.56 237.672 1442.14 237.462C1441.72 237.304 1441.46 237.83 1441.3 238.093Z" fill="url(#paint79_linear_1_123)"/>
<path d="M1371.95 341.574C1371.38 342.257 1369.64 344.045 1368.69 345.412C1368.22 346.096 1369.01 347.147 1369.9 346.253C1371.22 344.991 1372.48 343.361 1373.16 342.52C1373.9 341.679 1372.59 340.89 1371.95 341.574Z" fill="url(#paint80_linear_1_123)"/>
<path d="M1321.59 405.776C1321.27 406.249 1321.53 406.512 1321.95 406.617C1322.38 406.723 1322.95 406.197 1323.27 405.881C1323.58 405.513 1323.27 404.987 1322.8 404.83C1322.27 404.672 1321.9 405.25 1321.59 405.776Z" fill="url(#paint81_linear_1_123)"/>
<path d="M1327.11 398.835C1326.79 399.203 1326.37 399.729 1326.11 400.255C1325.85 400.781 1327.05 401.201 1327.48 400.676C1327.9 400.15 1328.74 399.361 1328.58 398.888C1328.47 398.362 1327.63 398.204 1327.11 398.835Z" fill="url(#paint82_linear_1_123)"/>
<path d="M1351.5 367.339C1351.08 368.022 1349.45 370.231 1348.98 370.914C1348.51 371.598 1349.45 372.439 1350.03 371.808C1350.56 371.177 1352.29 368.811 1352.82 368.128C1353.34 367.444 1351.92 366.708 1351.5 367.339Z" fill="url(#paint83_linear_1_123)"/>
<path d="M1448.35 225.105C1447.93 225.736 1447.51 226.314 1447.19 226.84C1446.93 227.366 1448.14 228.155 1448.5 227.629C1448.87 227.156 1449.24 226.788 1449.77 226.051C1450.24 225.368 1448.77 224.474 1448.35 225.105Z" fill="url(#paint84_linear_1_123)"/>
<path d="M1283.79 453.783C1282.47 455.256 1280.53 457.622 1279.84 458.463C1279.11 459.357 1280.53 460.303 1281.52 459.41C1282.52 458.516 1284.68 456.518 1285.99 455.203C1287.26 453.941 1285.1 452.258 1283.79 453.783Z" fill="url(#paint85_linear_1_123)"/>
<path d="M1488.99 108.952C1488.72 108.846 1488.57 109.004 1488.51 109.162C1488.46 109.32 1488.51 109.53 1488.78 109.583C1488.99 109.635 1489.14 109.53 1489.2 109.425C1489.25 109.32 1489.25 109.057 1488.99 108.952Z" fill="url(#paint86_linear_1_123)"/>
<path d="M1492.35 23.1906C1492.93 23.1906 1493.3 22.6648 1493.25 22.0338C1493.19 21.4029 1492.72 21.0874 1492.09 21.1925C1491.46 21.2977 1491.41 21.9287 1491.51 22.1916C1491.62 22.6648 1491.77 23.1906 1492.35 23.1906Z" fill="url(#paint87_linear_1_123)"/>
<path d="M1456.29 208.752C1455.86 209.383 1455.23 210.329 1454.81 211.013C1454.34 211.697 1455.71 212.485 1456.13 211.959C1456.55 211.381 1457.28 210.487 1457.55 209.961C1457.81 209.383 1456.71 208.121 1456.29 208.752Z" fill="url(#paint88_linear_1_123)"/>
<path d="M1487.83 113.421C1486.94 113.421 1486.88 114.262 1486.83 114.841C1486.78 115.261 1486.73 115.998 1487.51 116.155C1488.3 116.313 1488.62 115.367 1488.72 114.63C1488.88 113.947 1488.72 113.421 1487.83 113.421Z" fill="url(#paint89_linear_1_123)"/>
<path d="M1493.25 79.6109C1493.3 78.7696 1493.56 75.9828 1492.51 75.9828C1491.41 75.9828 1491.35 78.717 1491.35 79.6635C1491.35 80.1893 1491.62 80.9781 1492.3 80.9781C1492.98 80.9781 1493.25 80.2945 1493.25 79.6109Z" fill="url(#paint90_linear_1_123)"/>
<path d="M1462.07 196.237C1461.96 196.658 1461.86 197.237 1462.59 197.552C1463.33 197.868 1463.91 196.868 1464.12 196.29C1464.33 195.712 1463.65 195.081 1463.07 195.186C1462.38 195.186 1462.17 195.764 1462.07 196.237Z" fill="url(#paint91_linear_1_123)"/>
<path d="M1484.47 127.25C1484.2 128.144 1482.99 132.719 1482.21 135.611C1481.94 136.505 1481.68 137.714 1481.52 138.608C1481.42 139.291 1481.42 139.975 1482.15 140.133C1482.89 140.29 1483.2 139.502 1483.26 139.186C1484.15 135.348 1485.52 128.985 1485.83 127.723C1486.04 126.409 1484.73 126.304 1484.47 127.25Z" fill="url(#paint92_linear_1_123)"/>
<path d="M1479.73 145.391C1479.37 146.548 1476.74 153.909 1476.21 155.802C1475.69 157.642 1476.32 157.958 1476.58 158.063C1477.68 158.431 1478.26 157.327 1478.47 156.38C1479.42 152.752 1480.89 146.758 1481.1 145.759C1481.36 144.76 1480.1 144.234 1479.73 145.391Z" fill="url(#paint93_linear_1_123)"/>
<path d="M1219.7 540.386C1217.12 543.909 1214.44 547.747 1211.97 551.375C1211.7 551.743 1211.65 552.374 1212.18 552.637C1212.76 552.9 1213.23 552.322 1213.39 552.111C1216.12 548.22 1220.22 542.173 1220.91 541.227C1221.59 540.28 1220.12 539.755 1219.7 540.386Z" fill="url(#paint94_linear_1_123)"/>
<path d="M1273.43 466.718C1273.06 467.192 1271.27 469.663 1270.85 470.241C1270.43 470.82 1271.48 471.556 1271.9 470.925C1272.32 470.294 1274.01 468.033 1274.37 467.507C1274.74 466.981 1273.8 466.245 1273.43 466.718Z" fill="url(#paint95_linear_1_123)"/>
<path d="M1237.89 514.568C1237.47 514.989 1237.05 515.462 1236.73 515.777C1236.42 516.093 1237.1 516.776 1237.47 516.461C1237.83 516.145 1238.31 515.672 1238.62 515.304C1238.99 514.778 1238.31 514.147 1237.89 514.568Z" fill="url(#paint96_linear_1_123)"/>
<path d="M1252.35 494.324C1251.87 494.955 1249.93 497.531 1249.3 498.373C1248.66 499.214 1249.77 499.898 1250.35 499.214C1250.87 498.478 1253.13 496.164 1253.71 495.323C1254.24 494.482 1252.82 493.746 1252.35 494.324Z" fill="url(#paint97_linear_1_123)"/>
<path d="M1231.37 523.559C1230.89 524.085 1229.63 525.347 1228.95 526.399C1228.53 527.03 1229.32 527.976 1230.21 527.188C1231.21 526.241 1231.79 525.4 1232.42 524.558C1233.05 523.77 1231.84 523.034 1231.37 523.559Z" fill="url(#paint98_linear_1_123)"/>
<path d="M1259.76 484.807C1259.6 484.964 1259.34 485.543 1259.76 485.753C1260.18 485.963 1260.44 485.753 1260.6 485.49C1260.76 485.227 1260.76 484.964 1260.44 484.754C1260.07 484.544 1259.92 484.649 1259.76 484.807Z" fill="url(#paint99_linear_1_123)"/>
<path d="M1490.14 100.013C1489.62 99.9075 1489.46 100.381 1489.41 100.591C1489.36 100.854 1489.25 101.432 1489.78 101.538C1490.3 101.643 1490.46 101.169 1490.51 100.907C1490.56 100.644 1490.62 100.118 1490.14 100.013Z" fill="url(#paint100_linear_1_123)"/>
<defs>
<linearGradient id="paint0_linear_1_123" x1="673.744" y1="68.9794" x2="810.472" y2="1183.71" gradientUnits="userSpaceOnUse">
<stop stop-color="#EFF1F4"/>
<stop offset="1" stop-color="#DBDCDE"/>
</linearGradient>
<linearGradient id="paint1_linear_1_123" x1="683.595" y1="67.7711" x2="820.324" y2="1182.5" gradientUnits="userSpaceOnUse">
<stop stop-color="#EFF1F4"/>
<stop offset="1" stop-color="#DBDCDE"/>
</linearGradient>
<linearGradient id="paint2_linear_1_123" x1="695.877" y1="66.2646" x2="832.605" y2="1181" gradientUnits="userSpaceOnUse">
<stop stop-color="#EFF1F4"/>
<stop offset="1" stop-color="#DBDCDE"/>
</linearGradient>
<linearGradient id="paint3_linear_1_123" x1="699.058" y1="65.8745" x2="835.787" y2="1180.61" gradientUnits="userSpaceOnUse">
<stop stop-color="#EFF1F4"/>
<stop offset="1" stop-color="#DBDCDE"/>
</linearGradient>
<linearGradient id="paint4_linear_1_123" x1="721.499" y1="63.1218" x2="858.228" y2="1177.86" gradientUnits="userSpaceOnUse">
<stop stop-color="#EFF1F4"/>
<stop offset="1" stop-color="#DBDCDE"/>
</linearGradient>
<linearGradient id="paint5_linear_1_123" x1="701.019" y1="65.6336" x2="837.748" y2="1180.37" gradientUnits="userSpaceOnUse">
<stop stop-color="#EFF1F4"/>
<stop offset="1" stop-color="#DBDCDE"/>
</linearGradient>
<linearGradient id="paint6_linear_1_123" x1="724.037" y1="62.8105" x2="860.766" y2="1177.54" gradientUnits="userSpaceOnUse">
<stop stop-color="#EFF1F4"/>
<stop offset="1" stop-color="#DBDCDE"/>
</linearGradient>
<linearGradient id="paint7_linear_1_123" x1="639.917" y1="73.1286" x2="776.645" y2="1187.86" gradientUnits="userSpaceOnUse">
<stop stop-color="#EFF1F4"/>
<stop offset="1" stop-color="#DBDCDE"/>
</linearGradient>
<linearGradient id="paint8_linear_1_123" x1="630.157" y1="74.3254" x2="766.886" y2="1189.06" gradientUnits="userSpaceOnUse">
<stop stop-color="#EFF1F4"/>
<stop offset="1" stop-color="#DBDCDE"/>
</linearGradient>
<linearGradient id="paint9_linear_1_123" x1="650.025" y1="71.8883" x2="786.753" y2="1186.62" gradientUnits="userSpaceOnUse">
<stop stop-color="#EFF1F4"/>
<stop offset="1" stop-color="#DBDCDE"/>
</linearGradient>
<linearGradient id="paint10_linear_1_123" x1="658.156" y1="70.8913" x2="794.884" y2="1185.62" gradientUnits="userSpaceOnUse">
<stop stop-color="#EFF1F4"/>
<stop offset="1" stop-color="#DBDCDE"/>
</linearGradient>
<linearGradient id="paint11_linear_1_123" x1="627.524" y1="74.6488" x2="764.253" y2="1189.38" gradientUnits="userSpaceOnUse">
<stop stop-color="#EFF1F4"/>
<stop offset="1" stop-color="#DBDCDE"/>
</linearGradient>
<linearGradient id="paint12_linear_1_123" x1="623.829" y1="75.1021" x2="760.557" y2="1189.83" gradientUnits="userSpaceOnUse">
<stop stop-color="#EFF1F4"/>
<stop offset="1" stop-color="#DBDCDE"/>
</linearGradient>
<linearGradient id="paint13_linear_1_123" x1="632.567" y1="74.0294" x2="769.297" y2="1188.76" gradientUnits="userSpaceOnUse">
<stop stop-color="#EFF1F4"/>
<stop offset="1" stop-color="#DBDCDE"/>
</linearGradient>
<linearGradient id="paint14_linear_1_123" x1="58.3903" y1="144.453" x2="195.119" y2="1259.19" gradientUnits="userSpaceOnUse">
<stop stop-color="#EFF1F4"/>
<stop offset="1" stop-color="#DBDCDE"/>
</linearGradient>
<linearGradient id="paint15_linear_1_123" x1="0.141032" y1="151.601" x2="136.87" y2="1266.33" gradientUnits="userSpaceOnUse">
<stop stop-color="#EFF1F4"/>
<stop offset="1" stop-color="#DBDCDE"/>
</linearGradient>
<linearGradient id="paint16_linear_1_123" x1="657.397" y1="70.9833" x2="794.125" y2="1185.71" gradientUnits="userSpaceOnUse">
<stop stop-color="#EFF1F4"/>
<stop offset="1" stop-color="#DBDCDE"/>
</linearGradient>
<linearGradient id="paint17_linear_1_123" x1="1484.01" y1="-30.406" x2="1620.74" y2="1084.33" gradientUnits="userSpaceOnUse">
<stop stop-color="#EFF1F4"/>
<stop offset="1" stop-color="#DBDCDE"/>
</linearGradient>
<linearGradient id="paint18_linear_1_123" x1="1111.45" y1="15.2918" x2="1248.18" y2="1130.02" gradientUnits="userSpaceOnUse">
<stop stop-color="#EFF1F4"/>
<stop offset="1" stop-color="#DBDCDE"/>
</linearGradient>
<linearGradient id="paint19_linear_1_123" x1="686.123" y1="67.4608" x2="822.852" y2="1182.19" gradientUnits="userSpaceOnUse">
<stop stop-color="#EFF1F4"/>
<stop offset="1" stop-color="#DBDCDE"/>
</linearGradient>
<linearGradient id="paint20_linear_1_123" x1="1093.79" y1="17.4576" x2="1230.52" y2="1132.19" gradientUnits="userSpaceOnUse">
<stop stop-color="#EFF1F4"/>
<stop offset="1" stop-color="#DBDCDE"/>
</linearGradient>
<linearGradient id="paint21_linear_1_123" x1="627.793" y1="74.6151" x2="764.522" y2="1189.35" gradientUnits="userSpaceOnUse">
<stop stop-color="#EFF1F4"/>
<stop offset="1" stop-color="#DBDCDE"/>
</linearGradient>
<linearGradient id="paint22_linear_1_123" x1="617.577" y1="75.8692" x2="754.305" y2="1190.6" gradientUnits="userSpaceOnUse">
<stop stop-color="#EFF1F4"/>
<stop offset="1" stop-color="#DBDCDE"/>
</linearGradient>
<linearGradient id="paint23_linear_1_123" x1="1256.58" y1="-2.50927" x2="1393.31" y2="1112.24" gradientUnits="userSpaceOnUse">
<stop stop-color="#EFF1F4"/>
<stop offset="1" stop-color="#DBDCDE"/>
</linearGradient>
<linearGradient id="paint24_linear_1_123" x1="699.588" y1="65.8087" x2="836.317" y2="1180.54" gradientUnits="userSpaceOnUse">
<stop stop-color="#EFF1F4"/>
<stop offset="1" stop-color="#DBDCDE"/>
</linearGradient>
<linearGradient id="paint25_linear_1_123" x1="619.338" y1="75.6531" x2="756.066" y2="1190.38" gradientUnits="userSpaceOnUse">
<stop stop-color="#EFF1F4"/>
<stop offset="1" stop-color="#DBDCDE"/>
</linearGradient>
<linearGradient id="paint26_linear_1_123" x1="95.3781" y1="139.922" x2="232.106" y2="1254.64" gradientUnits="userSpaceOnUse">
<stop stop-color="#EFF1F4"/>
<stop offset="1" stop-color="#DBDCDE"/>
</linearGradient>
<linearGradient id="paint27_linear_1_123" x1="73.1944" y1="142.64" x2="209.923" y2="1257.37" gradientUnits="userSpaceOnUse">
<stop stop-color="#EFF1F4"/>
<stop offset="1" stop-color="#DBDCDE"/>
</linearGradient>
<linearGradient id="paint28_linear_1_123" x1="115.116" y1="137.496" x2="251.845" y2="1252.23" gradientUnits="userSpaceOnUse">
<stop stop-color="#EFF1F4"/>
<stop offset="1" stop-color="#DBDCDE"/>
</linearGradient>
<linearGradient id="paint29_linear_1_123" x1="128.71" y1="135.827" x2="265.44" y2="1250.57" gradientUnits="userSpaceOnUse">
<stop stop-color="#EFF1F4"/>
<stop offset="1" stop-color="#DBDCDE"/>
</linearGradient>
<linearGradient id="paint30_linear_1_123" x1="1698.06" y1="-56.6601" x2="1834.79" y2="1058.07" gradientUnits="userSpaceOnUse">
<stop stop-color="#EFF1F4"/>
<stop offset="1" stop-color="#DBDCDE"/>
</linearGradient>
<linearGradient id="paint31_linear_1_123" x1="1712.77" y1="-58.4642" x2="1849.5" y2="1056.27" gradientUnits="userSpaceOnUse">
<stop stop-color="#EFF1F4"/>
<stop offset="1" stop-color="#DBDCDE"/>
</linearGradient>
<linearGradient id="paint32_linear_1_123" x1="1733.66" y1="-61.026" x2="1870.39" y2="1053.7" gradientUnits="userSpaceOnUse">
<stop stop-color="#EFF1F4"/>
<stop offset="1" stop-color="#DBDCDE"/>
</linearGradient>
<linearGradient id="paint33_linear_1_123" x1="1678.53" y1="-54.264" x2="1815.25" y2="1060.47" gradientUnits="userSpaceOnUse">
<stop stop-color="#EFF1F4"/>
<stop offset="1" stop-color="#DBDCDE"/>
</linearGradient>
<linearGradient id="paint34_linear_1_123" x1="1721.71" y1="-59.5595" x2="1858.43" y2="1055.17" gradientUnits="userSpaceOnUse">
<stop stop-color="#EFF1F4"/>
<stop offset="1" stop-color="#DBDCDE"/>
</linearGradient>
<linearGradient id="paint35_linear_1_123" x1="1654.48" y1="-51.3146" x2="1791.21" y2="1063.42" gradientUnits="userSpaceOnUse">
<stop stop-color="#EFF1F4"/>
<stop offset="1" stop-color="#DBDCDE"/>
</linearGradient>
<linearGradient id="paint36_linear_1_123" x1="1672.54" y1="-53.5289" x2="1809.27" y2="1061.2" gradientUnits="userSpaceOnUse">
<stop stop-color="#EFF1F4"/>
<stop offset="1" stop-color="#DBDCDE"/>
</linearGradient>
<linearGradient id="paint37_linear_1_123" x1="1664.28" y1="-52.5167" x2="1801.01" y2="1062.21" gradientUnits="userSpaceOnUse">
<stop stop-color="#EFF1F4"/>
<stop offset="1" stop-color="#DBDCDE"/>
</linearGradient>
<linearGradient id="paint38_linear_1_123" x1="1649.35" y1="-50.6858" x2="1786.08" y2="1064.04" gradientUnits="userSpaceOnUse">
<stop stop-color="#EFF1F4"/>
<stop offset="1" stop-color="#DBDCDE"/>
</linearGradient>
<linearGradient id="paint39_linear_1_123" x1="1757.69" y1="-63.9727" x2="1894.42" y2="1050.76" gradientUnits="userSpaceOnUse">
<stop stop-color="#EFF1F4"/>
<stop offset="1" stop-color="#DBDCDE"/>
</linearGradient>
<linearGradient id="paint40_linear_1_123" x1="1739.32" y1="-61.7195" x2="1876.05" y2="1053.01" gradientUnits="userSpaceOnUse">
<stop stop-color="#EFF1F4"/>
<stop offset="1" stop-color="#DBDCDE"/>
</linearGradient>
<linearGradient id="paint41_linear_1_123" x1="1476.19" y1="-29.4496" x2="1612.92" y2="1085.31" gradientUnits="userSpaceOnUse">
<stop stop-color="#EFF1F4"/>
<stop offset="1" stop-color="#DBDCDE"/>
</linearGradient>
<linearGradient id="paint42_linear_1_123" x1="1634.35" y1="-48.8462" x2="1771.08" y2="1065.88" gradientUnits="userSpaceOnUse">
<stop stop-color="#EFF1F4"/>
<stop offset="1" stop-color="#DBDCDE"/>
</linearGradient>
<linearGradient id="paint43_linear_1_123" x1="1840.64" y1="-74.1483" x2="1977.37" y2="1040.58" gradientUnits="userSpaceOnUse">
<stop stop-color="#EFF1F4"/>
<stop offset="1" stop-color="#DBDCDE"/>
</linearGradient>
<linearGradient id="paint44_linear_1_123" x1="1789.98" y1="-67.8886" x2="1926.7" y2="1046.73" gradientUnits="userSpaceOnUse">
<stop stop-color="#EFF1F4"/>
<stop offset="1" stop-color="#DBDCDE"/>
</linearGradient>
<linearGradient id="paint45_linear_1_123" x1="1754.77" y1="-63.6116" x2="1891.5" y2="1051.11" gradientUnits="userSpaceOnUse">
<stop stop-color="#EFF1F4"/>
<stop offset="1" stop-color="#DBDCDE"/>
</linearGradient>
<linearGradient id="paint46_linear_1_123" x1="1780.5" y1="-66.7098" x2="1917.22" y2="1047.87" gradientUnits="userSpaceOnUse">
<stop stop-color="#EFF1F4"/>
<stop offset="1" stop-color="#DBDCDE"/>
</linearGradient>
<linearGradient id="paint47_linear_1_123" x1="1648.83" y1="-50.6144" x2="1785.55" y2="1064.08" gradientUnits="userSpaceOnUse">
<stop stop-color="#EFF1F4"/>
<stop offset="1" stop-color="#DBDCDE"/>
</linearGradient>
<linearGradient id="paint48_linear_1_123" x1="1654.65" y1="-51.3406" x2="1791.38" y2="1063.42" gradientUnits="userSpaceOnUse">
<stop stop-color="#EFF1F4"/>
<stop offset="1" stop-color="#DBDCDE"/>
</linearGradient>
<linearGradient id="paint49_linear_1_123" x1="1363.68" y1="-15.6453" x2="1500.4" y2="1099.09" gradientUnits="userSpaceOnUse">
<stop stop-color="#EFF1F4"/>
<stop offset="1" stop-color="#DBDCDE"/>
</linearGradient>
<linearGradient id="paint50_linear_1_123" x1="1658.91" y1="-51.8556" x2="1795.63" y2="1062.86" gradientUnits="userSpaceOnUse">
<stop stop-color="#EFF1F4"/>
<stop offset="1" stop-color="#DBDCDE"/>
</linearGradient>
<linearGradient id="paint51_linear_1_123" x1="1351.6" y1="-14.1651" x2="1488.33" y2="1100.56" gradientUnits="userSpaceOnUse">
<stop stop-color="#EFF1F4"/>
<stop offset="1" stop-color="#DBDCDE"/>
</linearGradient>
<linearGradient id="paint52_linear_1_123" x1="1673.43" y1="-53.6377" x2="1810.15" y2="1061.08" gradientUnits="userSpaceOnUse">
<stop stop-color="#EFF1F4"/>
<stop offset="1" stop-color="#DBDCDE"/>
</linearGradient>
<linearGradient id="paint53_linear_1_123" x1="1672.99" y1="-53.5816" x2="1809.71" y2="1061.11" gradientUnits="userSpaceOnUse">
<stop stop-color="#EFF1F4"/>
<stop offset="1" stop-color="#DBDCDE"/>
</linearGradient>
<linearGradient id="paint54_linear_1_123" x1="1673.84" y1="-53.6872" x2="1810.56" y2="1061.03" gradientUnits="userSpaceOnUse">
<stop stop-color="#EFF1F4"/>
<stop offset="1" stop-color="#DBDCDE"/>
</linearGradient>
<linearGradient id="paint55_linear_1_123" x1="1664.16" y1="-52.502" x2="1800.89" y2="1062.23" gradientUnits="userSpaceOnUse">
<stop stop-color="#EFF1F4"/>
<stop offset="1" stop-color="#DBDCDE"/>
</linearGradient>
<linearGradient id="paint56_linear_1_123" x1="1673.66" y1="-53.675" x2="1810.41" y2="1061.14" gradientUnits="userSpaceOnUse">
<stop stop-color="#EFF1F4"/>
<stop offset="1" stop-color="#DBDCDE"/>
</linearGradient>
<linearGradient id="paint57_linear_1_123" x1="1326.9" y1="-11.1348" x2="1463.63" y2="1103.59" gradientUnits="userSpaceOnUse">
<stop stop-color="#EFF1F4"/>
<stop offset="1" stop-color="#DBDCDE"/>
</linearGradient>
<linearGradient id="paint58_linear_1_123" x1="1307.33" y1="-8.73443" x2="1444.06" y2="1106" gradientUnits="userSpaceOnUse">
<stop stop-color="#EFF1F4"/>
<stop offset="1" stop-color="#DBDCDE"/>
</linearGradient>
<linearGradient id="paint59_linear_1_123" x1="1170.62" y1="8.03392" x2="1307.35" y2="1122.77" gradientUnits="userSpaceOnUse">
<stop stop-color="#EFF1F4"/>
<stop offset="1" stop-color="#DBDCDE"/>
</linearGradient>
<linearGradient id="paint60_linear_1_123" x1="1156.98" y1="9.70654" x2="1293.71" y2="1124.44" gradientUnits="userSpaceOnUse">
<stop stop-color="#EFF1F4"/>
<stop offset="1" stop-color="#DBDCDE"/>
</linearGradient>
<linearGradient id="paint61_linear_1_123" x1="1238.37" y1="-0.276119" x2="1375.09" y2="1114.45" gradientUnits="userSpaceOnUse">
<stop stop-color="#EFF1F4"/>
<stop offset="1" stop-color="#DBDCDE"/>
</linearGradient>
<linearGradient id="paint62_linear_1_123" x1="1196.42" y1="4.86954" x2="1333.14" y2="1119.6" gradientUnits="userSpaceOnUse">
<stop stop-color="#EFF1F4"/>
<stop offset="1" stop-color="#DBDCDE"/>
</linearGradient>
<linearGradient id="paint63_linear_1_123" x1="1282.45" y1="-5.6831" x2="1419.18" y2="1109.05" gradientUnits="userSpaceOnUse">
<stop stop-color="#EFF1F4"/>
<stop offset="1" stop-color="#DBDCDE"/>
</linearGradient>
<linearGradient id="paint64_linear_1_123" x1="1216.73" y1="2.37822" x2="1353.46" y2="1117.11" gradientUnits="userSpaceOnUse">
<stop stop-color="#EFF1F4"/>
<stop offset="1" stop-color="#DBDCDE"/>
</linearGradient>
<linearGradient id="paint65_linear_1_123" x1="1402.38" y1="-20.3929" x2="1539.11" y2="1094.34" gradientUnits="userSpaceOnUse">
<stop stop-color="#EFF1F4"/>
<stop offset="1" stop-color="#DBDCDE"/>
</linearGradient>
<linearGradient id="paint66_linear_1_123" x1="1584.13" y1="-42.686" x2="1720.86" y2="1072.05" gradientUnits="userSpaceOnUse">
<stop stop-color="#EFF1F4"/>
<stop offset="1" stop-color="#DBDCDE"/>
</linearGradient>
<linearGradient id="paint67_linear_1_123" x1="1414.37" y1="-21.8636" x2="1551.1" y2="1092.87" gradientUnits="userSpaceOnUse">
<stop stop-color="#EFF1F4"/>
<stop offset="1" stop-color="#DBDCDE"/>
</linearGradient>
<linearGradient id="paint68_linear_1_123" x1="1629.22" y1="-48.2171" x2="1765.95" y2="1066.52" gradientUnits="userSpaceOnUse">
<stop stop-color="#EFF1F4"/>
<stop offset="1" stop-color="#DBDCDE"/>
</linearGradient>
<linearGradient id="paint69_linear_1_123" x1="1487.93" y1="-30.8872" x2="1624.66" y2="1083.84" gradientUnits="userSpaceOnUse">
<stop stop-color="#EFF1F4"/>
<stop offset="1" stop-color="#DBDCDE"/>
</linearGradient>
<linearGradient id="paint70_linear_1_123" x1="1634.58" y1="-48.9359" x2="1771.35" y2="1066.06" gradientUnits="userSpaceOnUse">
<stop stop-color="#EFF1F4"/>
<stop offset="1" stop-color="#DBDCDE"/>
</linearGradient>
<linearGradient id="paint71_linear_1_123" x1="1670.07" y1="-53.2239" x2="1806.8" y2="1061.49" gradientUnits="userSpaceOnUse">
<stop stop-color="#EFF1F4"/>
<stop offset="1" stop-color="#DBDCDE"/>
</linearGradient>
<linearGradient id="paint72_linear_1_123" x1="1626.09" y1="-47.8166" x2="1762.81" y2="1066.85" gradientUnits="userSpaceOnUse">
<stop stop-color="#EFF1F4"/>
<stop offset="1" stop-color="#DBDCDE"/>
</linearGradient>
<linearGradient id="paint73_linear_1_123" x1="1672.41" y1="-53.5168" x2="1809.14" y2="1061.25" gradientUnits="userSpaceOnUse">
<stop stop-color="#EFF1F4"/>
<stop offset="1" stop-color="#DBDCDE"/>
</linearGradient>
<linearGradient id="paint74_linear_1_123" x1="1642.35" y1="-49.8266" x2="1779.08" y2="1064.91" gradientUnits="userSpaceOnUse">
<stop stop-color="#EFF1F4"/>
<stop offset="1" stop-color="#DBDCDE"/>
</linearGradient>
<linearGradient id="paint75_linear_1_123" x1="1618.82" y1="-46.9363" x2="1755.54" y2="1067.78" gradientUnits="userSpaceOnUse">
<stop stop-color="#EFF1F4"/>
<stop offset="1" stop-color="#DBDCDE"/>
</linearGradient>
<linearGradient id="paint76_linear_1_123" x1="1399.29" y1="-20.0237" x2="1536.03" y2="1094.75" gradientUnits="userSpaceOnUse">
<stop stop-color="#EFF1F4"/>
<stop offset="1" stop-color="#DBDCDE"/>
</linearGradient>
<linearGradient id="paint77_linear_1_123" x1="1377.63" y1="-17.3568" x2="1514.36" y2="1097.38" gradientUnits="userSpaceOnUse">
<stop stop-color="#EFF1F4"/>
<stop offset="1" stop-color="#DBDCDE"/>
</linearGradient>
<linearGradient id="paint78_linear_1_123" x1="1350.33" y1="-13.997" x2="1487.05" y2="1100.69" gradientUnits="userSpaceOnUse">
<stop stop-color="#EFF1F4"/>
<stop offset="1" stop-color="#DBDCDE"/>
</linearGradient>
<linearGradient id="paint79_linear_1_123" x1="1409.99" y1="-21.3129" x2="1546.72" y2="1093.36" gradientUnits="userSpaceOnUse">
<stop stop-color="#EFF1F4"/>
<stop offset="1" stop-color="#DBDCDE"/>
</linearGradient>
<linearGradient id="paint80_linear_1_123" x1="1327.44" y1="-11.1963" x2="1464.16" y2="1103.52" gradientUnits="userSpaceOnUse">
<stop stop-color="#EFF1F4"/>
<stop offset="1" stop-color="#DBDCDE"/>
</linearGradient>
<linearGradient id="paint81_linear_1_123" x1="1272.09" y1="-4.44422" x2="1408.83" y2="1110.37" gradientUnits="userSpaceOnUse">
<stop stop-color="#EFF1F4"/>
<stop offset="1" stop-color="#DBDCDE"/>
</linearGradient>
<linearGradient id="paint82_linear_1_123" x1="1277.7" y1="-5.1354" x2="1414.44" y2="1109.69" gradientUnits="userSpaceOnUse">
<stop stop-color="#EFF1F4"/>
<stop offset="1" stop-color="#DBDCDE"/>
</linearGradient>
<linearGradient id="paint83_linear_1_123" x1="1304.52" y1="-8.38307" x2="1441.24" y2="1106.33" gradientUnits="userSpaceOnUse">
<stop stop-color="#EFF1F4"/>
<stop offset="1" stop-color="#DBDCDE"/>
</linearGradient>
<linearGradient id="paint84_linear_1_123" x1="1418" y1="-22.2939" x2="1554.72" y2="1092.37" gradientUnits="userSpaceOnUse">
<stop stop-color="#EFF1F4"/>
<stop offset="1" stop-color="#DBDCDE"/>
</linearGradient>
<linearGradient id="paint85_linear_1_123" x1="1227.11" y1="1.09934" x2="1363.84" y2="1115.85" gradientUnits="userSpaceOnUse">
<stop stop-color="#EFF1F4"/>
<stop offset="1" stop-color="#DBDCDE"/>
</linearGradient>
<linearGradient id="paint86_linear_1_123" x1="1471.91" y1="-28.9786" x2="1608.7" y2="1086.2" gradientUnits="userSpaceOnUse">
<stop stop-color="#EFF1F4"/>
<stop offset="1" stop-color="#DBDCDE"/>
</linearGradient>
<linearGradient id="paint87_linear_1_123" x1="1485.9" y1="-30.6379" x2="1622.64" y2="1084.11" gradientUnits="userSpaceOnUse">
<stop stop-color="#EFF1F4"/>
<stop offset="1" stop-color="#DBDCDE"/>
</linearGradient>
<linearGradient id="paint88_linear_1_123" x1="1427.45" y1="-23.4497" x2="1564.17" y2="1091.19" gradientUnits="userSpaceOnUse">
<stop stop-color="#EFF1F4"/>
<stop offset="1" stop-color="#DBDCDE"/>
</linearGradient>
<linearGradient id="paint89_linear_1_123" x1="1470.2" y1="-28.7304" x2="1606.94" y2="1086.15" gradientUnits="userSpaceOnUse">
<stop stop-color="#EFF1F4"/>
<stop offset="1" stop-color="#DBDCDE"/>
</linearGradient>
<linearGradient id="paint90_linear_1_123" x1="1479.03" y1="-29.7955" x2="1615.76" y2="1084.96" gradientUnits="userSpaceOnUse">
<stop stop-color="#EFF1F4"/>
<stop offset="1" stop-color="#DBDCDE"/>
</linearGradient>
<linearGradient id="paint91_linear_1_123" x1="1435.97" y1="-24.5078" x2="1572.69" y2="1090.2" gradientUnits="userSpaceOnUse">
<stop stop-color="#EFF1F4"/>
<stop offset="1" stop-color="#DBDCDE"/>
</linearGradient>
<linearGradient id="paint92_linear_1_123" x1="1463.86" y1="-27.933" x2="1600.6" y2="1086.79" gradientUnits="userSpaceOnUse">
<stop stop-color="#EFF1F4"/>
<stop offset="1" stop-color="#DBDCDE"/>
</linearGradient>
<linearGradient id="paint93_linear_1_123" x1="1456.71" y1="-27.0576" x2="1593.44" y2="1087.68" gradientUnits="userSpaceOnUse">
<stop stop-color="#EFF1F4"/>
<stop offset="1" stop-color="#DBDCDE"/>
</linearGradient>
<linearGradient id="paint94_linear_1_123" x1="1150.72" y1="10.4777" x2="1287.45" y2="1125.2" gradientUnits="userSpaceOnUse">
<stop stop-color="#EFF1F4"/>
<stop offset="1" stop-color="#DBDCDE"/>
</linearGradient>
<linearGradient id="paint95_linear_1_123" x1="1215.43" y1="2.55881" x2="1352.15" y2="1117.24" gradientUnits="userSpaceOnUse">
<stop stop-color="#EFF1F4"/>
<stop offset="1" stop-color="#DBDCDE"/>
</linearGradient>
<linearGradient id="paint96_linear_1_123" x1="1175.37" y1="7.43532" x2="1312.1" y2="1122.2" gradientUnits="userSpaceOnUse">
<stop stop-color="#EFF1F4"/>
<stop offset="1" stop-color="#DBDCDE"/>
</linearGradient>
<linearGradient id="paint97_linear_1_123" x1="1191.19" y1="5.5072" x2="1327.92" y2="1120.25" gradientUnits="userSpaceOnUse">
<stop stop-color="#EFF1F4"/>
<stop offset="1" stop-color="#DBDCDE"/>
</linearGradient>
<linearGradient id="paint98_linear_1_123" x1="1167.34" y1="8.41031" x2="1304.08" y2="1123.2" gradientUnits="userSpaceOnUse">
<stop stop-color="#EFF1F4"/>
<stop offset="1" stop-color="#DBDCDE"/>
</linearGradient>
<linearGradient id="paint99_linear_1_123" x1="1201.15" y1="4.28874" x2="1337.87" y2="1119.02" gradientUnits="userSpaceOnUse">
<stop stop-color="#EFF1F4"/>
<stop offset="1" stop-color="#DBDCDE"/>
</linearGradient>
<linearGradient id="paint100_linear_1_123" x1="1474" y1="-29.1763" x2="1610.73" y2="1085.55" gradientUnits="userSpaceOnUse">
<stop stop-color="#EFF1F4"/>
<stop offset="1" stop-color="#DBDCDE"/>
</linearGradient>
</defs>
</svg>
