<svg id="Capa_1" enable-background="new 0 0 511.996 511.996" height="512" viewBox="0 0 511.996 511.996" width="512" xmlns="http://www.w3.org/2000/svg"><g><path d="m65.477 271.284h208.573c4.143 0 7.5-3.358 7.5-7.5s-3.357-7.5-7.5-7.5h-208.573c-4.143 0-7.5 3.358-7.5 7.5s3.358 7.5 7.5 7.5z"/><path d="m65.477 307.889h208.573c4.143 0 7.5-3.358 7.5-7.5s-3.357-7.5-7.5-7.5h-208.573c-4.143 0-7.5 3.358-7.5 7.5s3.358 7.5 7.5 7.5z"/><path d="m65.477 344.495h174.453c4.143 0 7.5-3.358 7.5-7.5s-3.357-7.5-7.5-7.5h-174.453c-4.143 0-7.5 3.358-7.5 7.5s3.358 7.5 7.5 7.5z"/><path d="m503.443 233.457c0-62.354-24.281-120.981-68.373-165.083-44.101-44.092-102.729-68.374-165.083-68.374s-120.98 24.282-165.083 68.374c-29.756 29.756-50.828 66.661-61.112 106.953-20.59 7.954-35.24 27.949-35.24 51.314v128.817c0 30.32 24.667 54.986 54.986 54.986h16.564c4.143 0 7.5-3.358 7.5-7.5s-3.357-7.5-7.5-7.5h-16.563c-22.049 0-39.986-17.938-39.986-39.986v-128.817c0-22.054 17.938-39.997 39.986-39.997h212.446c22.049 0 39.986 17.942 39.986 39.997v128.817c0 22.048-17.938 39.986-39.986 39.986h-44.42c-4.143 0-7.5 3.358-7.5 7.5v46.924c0 3.776-2.83 5.373-3.697 5.772-.867.401-3.924 1.513-6.797-.945l-67.146-57.45c-1.358-1.163-3.088-1.801-4.876-1.801h-25.68c-4.143 0-7.5 3.358-7.5 7.5s3.357 7.5 7.5 7.5h22.909l65.041 55.648c3.982 3.407 8.862 5.167 13.826 5.167 3.03 0 6.092-.656 8.997-1.994 7.662-3.528 12.423-10.961 12.423-19.397v-39.424h36.92c30.319 0 54.986-24.667 54.986-54.986v-128.817c0-30.325-24.667-54.997-54.986-54.997h-183.332c12.076-34.427 34.389-65.236 63.606-87.539 32.948-25.153 72.275-38.449 113.728-38.449 103.553 0 187.8 84.247 187.8 187.8 0 9.377-.72 18.767-2.116 28.044l-4.714-3.465c.876-13.898-7.398-27.321-21.131-32.319-8.089-2.943-16.838-2.562-24.637 1.076-7.8 3.637-13.717 10.094-16.66 18.182l-45.317 124.507c-6.076 16.695 2.563 35.221 19.258 41.297 3.597 1.309 7.323 1.96 11.04 1.96 4.641 0 9.266-1.016 13.597-3.036 4.978-2.321 9.183-5.794 12.344-10.103l.918.059-12.644 31.509c-4.099 10.2-13.848 16.791-24.835 16.791h-32.552c-7.391-10.949-19.913-18.163-34.088-18.163-22.663 0-41.101 18.438-41.101 41.101s18.438 41.1 41.101 41.1c14.179 0 26.703-7.217 34.094-18.17h32.547c29.828 0 56.283-17.885 67.399-45.564l20.456-50.959c7.087-3.969 12.78-10.365 15.674-18.321l7.459-20.499c1.416-3.892-.591-8.196-4.483-9.612-3.896-1.417-8.196.591-9.612 4.483l-7.459 20.5c-2.958 8.13-11.056 13.413-19.691 12.86l-26.494-1.714 40.572-111.469 21.391 15.724c6.97 5.122 9.775 14.379 6.825 22.506l-2.902 7.971c-1.418 3.892.589 8.196 4.48 9.613.848.309 1.714.455 2.565.455 3.063 0 5.939-1.891 7.048-4.936l2.905-7.977c.916-2.523 1.511-5.107 1.814-7.702 8.36-24.4 12.605-49.873 12.605-75.728zm-207.194 263.539c-14.392 0-26.101-11.708-26.101-26.1s11.709-26.101 26.101-26.101 26.101 11.708 26.101 26.101c-.001 14.391-11.71 26.1-26.101 26.1zm136.56-95.278-16.44 40.954c-8.819 21.962-29.812 36.153-53.479 36.153h-26.315c.504-2.567.775-5.217.775-7.93 0-2.716-.271-5.368-.777-7.938h26.317c17.146 0 32.357-10.283 38.755-26.201l14.479-36.08 15.542 1.004c.381.026.761.027 1.143.038zm2.179-139.835-45.317 124.507c-1.573 4.322-4.735 7.773-8.903 9.717-4.169 1.944-8.844 2.149-13.167.575-8.923-3.247-13.54-13.148-10.293-22.071l45.317-124.507c1.573-4.322 4.735-7.773 8.903-9.717 2.315-1.08 4.787-1.623 7.268-1.623 1.985 0 3.978.348 5.899 1.048 8.923 3.247 13.54 13.148 10.293 22.071zm34.212 9.563c2.377-12.504 3.587-25.259 3.587-37.989 0-111.824-90.976-202.8-202.8-202.8-44.771 0-87.244 14.359-122.83 41.526-32.927 25.137-57.735 60.292-70.324 99.462h-13.294c-1.08 0-2.15.04-3.215.102 10.212-34.842 29.144-66.723 55.186-92.765 41.269-41.26 96.129-63.982 154.477-63.982s113.209 22.722 154.477 63.979c41.258 41.268 63.979 96.129 63.979 154.477 0 16.64-1.88 33.109-5.595 49.199-1.711-2.025-3.667-3.874-5.863-5.487z"/></g></svg>