<svg id="Capa_1" enable-background="new 0 0 512 512" height="512" viewBox="0 0 512 512" width="512" xmlns="http://www.w3.org/2000/svg"><g><g><g><g><g><circle cx="386.937" cy="58.78" r="7.531"/><circle cx="419.719" cy="58.78" r="7.531"/><circle cx="452.501" cy="58.78" r="7.531"/></g></g></g></g><g><path d="m321.87 52.954h-226.009c-4.142 0-7.5 3.357-7.5 7.5s3.357 7.5 7.5 7.5h226.01c4.142 0 7.5-3.357 7.5-7.5s-3.358-7.5-7.501-7.5z"/><path d="m371.003 191.643h95.331c4.142 0 7.5-3.357 7.5-7.5s-3.357-7.5-7.5-7.5h-95.331c-4.142 0-7.5 3.357-7.5 7.5s3.358 7.5 7.5 7.5z"/><path d="m371.003 268.637h48.716c4.142 0 7.5-3.357 7.5-7.5s-3.357-7.5-7.5-7.5h-48.716c-4.142 0-7.5 3.357-7.5 7.5s3.358 7.5 7.5 7.5z"/><path d="m371.003 230.14h95.331c4.142 0 7.5-3.357 7.5-7.5s-3.357-7.5-7.5-7.5h-95.331c-4.142 0-7.5 3.357-7.5 7.5s3.358 7.5 7.5 7.5z"/><path d="m256.433 345.051c23.645-1.324 45.898-11.285 62.66-28.045 23.376-23.377 33.067-56.63 25.92-88.95-2.974-13.441-19.716-18.248-29.447-8.519l-42.645 42.645c-9.717 9.719-25.45 9.72-35.168 0-9.719-9.717-9.72-25.449 0-35.167l42.644-42.645c9.736-9.734 4.918-26.476-8.517-29.447-32.321-7.145-65.573 2.544-88.95 25.92-16.76 16.761-26.721 39.015-28.045 62.661-1.026 17.978-10.026 39.468-25.884 55.325l-114.055 114.057c-19.926 19.924-19.929 52.178-.001 72.106 19.88 19.878 52.225 19.879 72.106 0l114.056-114.056c15.804-15.806 37.283-24.858 55.326-25.885zm-179.99 129.333c-14.031 14.031-36.86 14.031-50.892 0-14.062-14.062-14.066-36.827.001-50.891l114.056-114.057c18.435-18.436 29.046-43.477 30.253-65.094 1.118-19.958 9.526-38.742 23.676-52.891 19.79-19.79 47.89-27.9 75.106-21.881 1.896.419 2.533 2.811 1.148 4.193l-42.645 42.645c-15.581 15.583-15.58 40.799 0 56.382 15.583 15.581 40.8 15.58 56.383 0l42.645-42.645c1.379-1.382 3.774-.748 4.193 1.15 6.035 27.292-2.145 55.37-21.881 75.105-14.149 14.15-32.934 22.558-52.891 23.676-21.131 1.18-46.389 11.548-65.095 30.253z"/><path d="m484.887 12.1h-422.232c-14.95 0-27.112 12.163-27.112 27.113v317.923c0 4.142 3.357 7.5 7.5 7.5s7.5-3.357 7.5-7.5v-251.676h446.457v303.13c0 6.68-5.433 12.113-12.113 12.113h-314.754c-4.142 0-7.5 3.357-7.5 7.5s3.357 7.5 7.5 7.5h314.755c14.95 0 27.113-12.163 27.113-27.113v-369.378c-.001-14.95-12.164-27.112-27.114-27.112zm-434.344 78.36v-51.248c0-6.68 5.433-12.113 12.112-12.113h422.233c6.68 0 12.113 5.433 12.113 12.113v51.248z"/><path d="m151.386 316.743-112.192 112.192c-8.788 8.788-8.791 23.016 0 31.807 8.788 8.788 23.016 8.791 31.807 0l112.192-112.192c8.788-8.788 8.791-23.016 0-31.807-8.788-8.788-23.016-8.79-31.807 0zm21.2 21.2-112.192 112.192c-2.926 2.928-7.666 2.928-10.593 0-2.928-2.926-2.928-7.666 0-10.593l112.192-112.192c2.926-2.928 7.666-2.928 10.593 0 2.927 2.926 2.928 7.667 0 10.593z"/></g></g></svg>